<?xml version="1.0" standalone="no"?>
<!DOCTYPE svg PUBLIC "-//W3C//DTD SVG 20010904//EN"
 "http://www.w3.org/TR/2001/REC-SVG-20010904/DTD/svg10.dtd">
<svg version="1.0" xmlns="http://www.w3.org/2000/svg"
 width="1280.000000pt" height="720.000000pt" viewBox="0 0 1280.000000 720.000000"
 preserveAspectRatio="xMidYMid meet">

<g transform="translate(0.000000,720.000000) scale(0.100000,-0.100000)"
fill="#000000" stroke="none">
<path d="M7740 7170 c-260 -26 -689 -142 -965 -260 -181 -78 -410 -196 -579
-299 -53 -33 -74 -41 -96 -36 -32 7 -94 -16 -127 -46 -26 -25 -56 -19 -79 17
-21 31 -28 30 -65 -10 -17 -19 -43 -39 -59 -46 -26 -11 -28 -15 -26 -62 l3
-51 -86 7 c-65 5 -89 11 -103 25 -9 11 -26 22 -38 26 -22 7 -26 20 -9 31 7 4
-1 19 -21 39 -18 19 -33 44 -34 57 -1 17 -8 24 -28 26 -37 4 -53 25 -37 50 7
11 9 27 6 37 -6 14 -15 16 -57 10 -41 -6 -57 -3 -86 14 -44 26 -59 26 -95 1
l-28 -21 -15 29 c-11 22 -27 32 -60 41 -63 16 -70 14 -88 -17 -15 -26 -16 -33
-3 -76 15 -50 43 -81 133 -149 28 -22 52 -40 52 -41 0 0 -38 1 -85 3 -79 3
-87 1 -116 -23 -17 -14 -35 -24 -39 -21 -5 3 -11 1 -15 -5 -3 -5 1 -10 9 -10
20 0 20 -2 -5 -45 -15 -25 -24 -64 -29 -118 -6 -60 -17 -104 -43 -162 -49
-113 -87 -238 -87 -290 0 -49 4 -47 -120 -59 -96 -10 -147 -33 -220 -102 l-67
-64 -2167 0 -2166 0 0 -905 c0 -855 1 -905 18 -905 9 0 96 5 192 10 646 35
1258 46 1705 30 596 -22 962 -51 2275 -185 400 -41 845 -71 1176 -81 115 -3
223 -7 239 -9 17 -1 247 -3 513 -4 265 0 482 -5 482 -9 0 -5 -49 -18 -108 -30
-146 -29 -257 -73 -366 -146 -90 -60 -92 -61 -158 -60 -44 1 -86 9 -121 24
l-54 23 -124 -32 c-68 -17 -193 -49 -277 -71 -119 -31 -156 -38 -170 -29 -15
9 -37 1 -122 -41 -82 -41 -120 -54 -175 -61 -38 -4 -92 -15 -119 -24 -27 -9
-66 -16 -85 -14 -90 7 -252 2 -316 -10 -112 -22 -173 -61 -147 -94 5 -6 12
-37 16 -68 l6 -55 -58 -18 c-87 -28 -238 -109 -327 -177 -65 -49 -268 -159
-294 -159 -6 0 -6 13 -2 65 1 6 12 23 26 39 14 16 25 33 25 38 0 17 -28 63
-52 85 l-24 23 -85 -36 c-46 -20 -127 -51 -179 -70 -52 -19 -101 -36 -107 -39
-10 -3 -10 -10 -1 -30 6 -14 14 -25 18 -25 3 0 74 26 157 58 l151 58 6 -55 c7
-68 21 -121 39 -145 12 -17 16 -17 77 8 35 14 65 24 67 22 2 -2 -16 -32 -40
-67 -25 -35 -61 -97 -81 -138 -36 -71 -38 -73 -68 -67 -17 3 -35 6 -40 6 -5 0
-6 5 -3 10 4 6 -5 10 -19 10 -14 0 -26 -1 -26 -2 0 -2 -7 -41 -15 -88 -8 -47
-15 -86 -15 -88 0 -2 -49 43 -109 99 l-109 102 5 139 c4 95 3 138 -5 138 -6 0
-13 -12 -16 -27 -8 -41 -24 -250 -36 -478 -28 -531 -44 -743 -80 -1105 -19
-193 -19 -194 15 -200 43 -8 55 -40 55 -152 l0 -98 -80 0 c-91 0 -174 15 -190
35 -8 10 -9 43 -3 117 l8 103 40 0 c22 0 49 -4 60 -8 19 -6 20 -2 21 141 2
229 38 688 84 1077 40 336 70 618 67 621 -8 8 -287 -118 -287 -130 0 -2 19
-14 43 -26 23 -12 70 -40 105 -62 l63 -41 -5 -61 c-4 -34 -13 -135 -21 -226
-22 -246 -34 -370 -50 -525 -31 -300 -46 -675 -29 -719 6 -16 4 -18 -12 -12
-10 4 -35 10 -54 13 -44 6 -60 -10 -67 -67 l-6 -40 -45 0 c-64 0 -334 -33
-567 -69 -42 -7 -44 -11 -30 -63 5 -21 3 -27 -12 -31 -11 -3 -9 -3 5 -2 12 1
22 2 22 1 0 -1 23 -66 51 -146 27 -80 64 -187 82 -239 29 -83 48 -114 63 -98
3 2 -34 112 -81 243 -83 230 -103 294 -92 294 2 0 40 7 83 15 118 22 285 43
412 51 120 7 119 7 106 -42 -5 -19 -15 -22 -96 -28 -150 -11 -317 -36 -359
-53 -45 -18 -55 -41 -46 -111 9 -70 121 -366 140 -370 15 -3 14 3 -3 52 -10
31 -16 56 -12 56 4 0 2 4 -4 8 -18 11 -86 223 -88 271 -1 40 2 45 34 62 43 22
135 36 299 45 104 6 126 5 135 -8 24 -33 128 -68 202 -68 39 0 46 -5 166 -128
112 -115 126 -133 132 -173 8 -49 66 -119 99 -119 44 0 -10 96 -130 230 -36
41 -89 100 -115 130 -41 45 -46 56 -31 58 10 2 23 10 30 18 9 13 29 -5 117
-103 108 -121 240 -283 257 -315 7 -13 21 -18 52 -17 29 1 35 3 21 7 -12 4
-52 44 -88 89 l-66 82 35 79 c78 179 158 431 173 548 l7 59 120 -4 c66 -2 147
-6 180 -10 53 -5 62 -10 80 -38 12 -19 38 -40 65 -51 l45 -19 -173 -8 c-202
-9 -192 -3 -223 -133 -14 -59 -49 -281 -49 -307 0 -3 -36 -5 -80 -5 -104 0
-107 -17 -9 -62 l71 -33 -7 -58 c-5 -46 -3 -57 9 -57 8 0 16 6 18 12 3 9 37
12 128 9 139 -3 162 -12 182 -67 7 -22 19 -34 30 -34 22 0 22 0 2 72 -16 54
-21 61 -63 82 -25 13 -77 33 -116 46 -38 12 -74 27 -80 33 -7 7 -4 8 8 3 10
-3 93 -6 184 -6 l166 0 -5 -115 -4 -115 28 0 c25 0 29 5 44 56 12 41 13 59 5
67 -6 6 -11 41 -11 78 l0 66 -92 7 c-50 3 -143 6 -207 6 -64 0 -122 4 -130 9
-11 7 -12 25 -2 107 14 119 41 286 47 296 3 5 101 8 218 8 200 0 216 -1 271
-24 32 -13 61 -30 66 -38 5 -10 18 -14 33 -11 13 3 27 0 30 -6 4 -6 14 -11 23
-11 9 0 35 -8 57 -18 46 -21 123 -43 176 -50 19 -2 40 -8 46 -13 6 -5 42 -11
80 -13 48 -3 84 -12 119 -30 28 -14 56 -26 64 -26 8 0 31 -5 50 -11 20 -7 42
-14 50 -16 8 -2 12 -6 9 -8 -3 -3 -48 4 -100 14 -257 53 -552 101 -624 101
-11 0 -28 -6 -37 -12 -15 -12 -15 -17 -2 -53 21 -59 19 -174 -4 -237 -11 -29
-25 -75 -32 -103 -7 -27 -20 -69 -30 -92 l-18 -43 23 0 c22 0 26 10 56 116 39
140 70 287 70 332 0 19 5 32 13 32 15 0 350 -50 597 -89 102 -16 267 -39 366
-51 103 -12 203 -29 230 -40 55 -21 52 -24 -44 -43 -52 -11 -92 -10 -250 4
-201 19 -568 39 -695 39 l-78 0 -15 -35 c-8 -19 -22 -86 -32 -147 l-18 -113
24 -3 c13 -2 25 -2 27 0 2 2 6 28 10 58 14 120 26 193 31 202 4 5 34 7 73 3
216 -20 296 -27 481 -45 246 -24 368 -25 484 -5 48 9 91 13 96 10 5 -3 28 4
50 15 43 22 67 21 165 -6 68 -19 258 -27 320 -14 28 6 82 17 120 25 39 7 83
18 99 25 23 8 31 8 38 -2 6 -10 8 -9 8 4 0 11 10 20 28 24 42 9 171 65 233
101 l57 33 143 -24 c79 -13 168 -27 197 -31 28 -4 52 -10 52 -13 0 -4 32 -8
70 -10 74 -2 91 10 50 36 -19 12 -28 42 -12 42 4 0 48 7 97 16 109 18 401 31
392 17 -4 -6 14 -8 46 -5 29 2 132 -3 230 -13 99 -9 182 -14 185 -11 3 4 -4
20 -17 36 l-22 30 310 0 c180 0 342 5 386 11 74 11 76 13 70 36 -5 21 0 26 37
43 24 10 79 29 123 41 44 12 142 50 217 85 75 35 143 64 150 64 8 0 18 4 24 9
15 15 371 165 462 196 73 24 93 26 160 21 252 -20 253 -20 368 9 150 37 517
159 752 249 52 20 98 36 104 36 6 0 7 -11 3 -27 -14 -60 -15 -68 -7 -81 6 -9
33 11 98 74 104 101 267 233 499 404 91 68 164 128 162 134 -10 26 -104 0
-456 -128 -251 -91 -387 -136 -415 -136 -75 0 -83 -27 -21 -68 42 -27 44 -38
8 -47 -46 -11 -275 -94 -318 -114 -26 -13 -74 -22 -140 -26 -55 -3 -152 -15
-215 -26 -63 -11 -121 -21 -129 -22 -8 -1 -15 8 -16 21 -3 34 -19 46 -43 33
-36 -19 -257 -80 -353 -96 -56 -10 -152 -39 -246 -75 -141 -54 -153 -57 -147
-37 15 49 14 50 -8 8 -22 -43 -28 -47 -123 -82 -71 -26 -102 -34 -107 -25 -5
7 -8 6 -8 -4 0 -28 -225 -105 -350 -120 -41 -5 -113 -18 -160 -29 -186 -45
-310 -67 -310 -54 1 4 19 20 41 36 22 15 37 32 34 37 -4 6 -89 10 -213 10
-203 0 -331 15 -356 40 -7 7 -3 19 11 39 24 32 16 51 -22 51 -19 0 -28 16 -60
103 -41 109 -88 254 -99 301 -7 28 -8 29 -61 22 -75 -9 -85 -14 -85 -47 0 -16
-5 -29 -11 -29 -5 0 -8 -4 -5 -8 3 -5 -8 -22 -25 -38 -25 -24 -31 -26 -39 -14
-5 8 -10 21 -10 28 0 26 -65 242 -128 422 -35 102 -66 192 -68 200 -4 10 14
25 58 48 35 18 83 44 106 59 41 24 43 27 37 60 -15 83 -117 225 -236 329 -13
12 -30 39 -38 60 -29 86 -149 240 -205 265 -23 10 -52 29 -66 42 -14 13 -38
32 -53 41 -31 21 -34 41 -11 67 22 24 10 39 -32 39 -25 0 -34 4 -34 16 0 9 -7
22 -15 28 -9 6 -30 81 -53 183 l-39 173 78 120 c43 66 111 173 150 238 39 64
76 120 81 123 5 3 9 9 8 13 -1 4 7 21 18 39 14 25 35 39 88 60 38 15 75 27 81
27 6 0 13 3 15 8 2 4 76 38 165 75 l163 68 337 -11 c186 -5 484 -14 663 -20
179 -5 476 -14 660 -20 184 -6 481 -15 660 -20 179 -6 465 -15 635 -20 782
-24 737 -21 732 -42 -3 -10 -1 -15 5 -12 7 4 8 -24 4 -82 -13 -171 -5 -156
-102 -188 -47 -15 -84 -29 -82 -31 2 -3 46 10 98 27 83 26 117 31 260 39 91 4
271 15 400 23 129 8 334 20 455 26 121 6 235 13 253 16 l32 5 0 884 0 885
-2912 2 -2913 3 -80 29 c-97 36 -101 39 -108 76 -15 74 180 440 366 685 74 97
171 194 262 262 209 157 615 348 995 469 l115 37 -50 14 c-27 8 -72 19 -100
23 -61 10 -532 10 -635 0z m570 -39 c47 -4 78 -10 70 -13 -8 -4 -76 -27 -150
-51 -243 -81 -513 -207 -716 -336 -230 -147 -259 -167 -334 -227 -140 -114
-210 -208 -286 -387 -26 -62 -66 -152 -90 -202 -40 -84 -43 -88 -49 -60 -3 17
-13 50 -22 75 -9 27 -18 98 -22 175 -6 140 -19 177 -64 194 -12 4 -107 7 -212
6 -132 -2 -224 2 -300 13 -99 14 -106 17 -70 23 74 14 357 117 381 140 21 19
23 28 18 82 -2 33 -9 68 -15 78 -12 24 -51 24 -87 2 -15 -9 -22 -12 -17 -6 33
37 404 235 523 280 128 48 330 108 411 123 26 4 107 19 181 33 309 59 600 79
850 58z m-3190 -731 c0 -11 -40 -33 -95 -50 -22 -7 -48 -19 -57 -27 -9 -8 -22
-12 -27 -8 -19 11 -12 54 9 65 44 23 170 38 170 20z m745 -715 c31 -16 66 -46
94 -80 42 -54 63 -66 76 -44 4 5 19 8 33 5 30 -6 393 -35 486 -39 l60 -2 -57
-44 c-61 -47 -69 -61 -36 -61 15 0 19 -4 15 -15 -3 -8 -9 -22 -12 -30 -4 -11
0 -15 17 -15 21 0 18 -5 -26 -50 -48 -49 -68 -53 -45 -10 15 28 -3 50 -42 50
-26 0 -28 2 -18 21 16 29 7 34 -64 34 -52 0 -69 -5 -103 -28 -43 -30 -146 -53
-189 -43 -14 4 -39 21 -55 38 l-28 32 -278 -13 c-153 -7 -314 -16 -358 -21
-171 -19 -225 -23 -226 -14 0 5 -2 21 -4 37 -2 15 -1 27 3 27 4 0 16 7 26 15
19 15 19 16 -14 50 -29 30 -31 35 -14 35 11 0 25 5 32 12 9 9 4 18 -21 39
l-32 27 30 43 c27 39 36 44 73 47 23 2 99 -7 169 -18 161 -28 248 -31 248 -10
0 8 4 21 8 27 25 40 171 38 252 -2z m-1101 10 c7 -19 27 -19 63 2 28 15 32 15
93 -10 36 -15 64 -31 63 -36 -2 -6 23 -30 54 -53 l57 -43 -55 -5 -54 -5 57
-39 c32 -21 55 -42 52 -47 -3 -5 -23 -9 -44 -9 -41 0 -62 -16 -35 -26 9 -4 29
-26 46 -50 26 -38 28 -45 14 -50 -26 -10 -147 4 -162 19 -22 21 -28 130 -10
166 12 23 12 31 3 31 -23 0 -41 -51 -39 -111 l2 -59 -127 5 c-70 3 -130 5
-133 5 -4 0 -9 32 -11 71 -8 103 -34 119 -44 26 -12 -124 -18 -144 -52 -172
l-33 -28 -39 22 c-21 12 -41 17 -44 13 -3 -5 10 -18 29 -28 19 -10 35 -25 35
-33 0 -9 -10 -75 -22 -147 -20 -124 -20 -137 -6 -210 l15 -78 -48 52 c-105
115 -141 242 -115 416 22 152 55 226 137 309 90 90 146 114 280 116 51 1 68
-3 73 -14z m336 -3 c0 -5 -8 -16 -17 -24 -16 -13 -20 -12 -40 9 l-22 23 39 0
c22 0 40 -4 40 -8z m1905 -164 c191 -64 229 -90 279 -192 56 -114 70 -227 45
-375 -16 -102 -22 -103 -62 -9 l-37 83 43 37 c45 41 33 52 -22 21 l-31 -18
-31 33 c-17 18 -41 40 -55 48 l-24 16 30 35 c45 51 36 59 -22 18 -51 -37 -53
-37 -101 -26 -27 6 -59 11 -73 11 -31 0 -30 8 6 80 17 33 30 65 30 72 -1 16
-46 -37 -66 -77 -30 -61 -35 -64 -103 -58 l-62 6 7 31 c11 49 7 158 -7 191
-12 28 -13 25 -20 -60 -5 -49 -13 -107 -19 -127 l-11 -38 -89 0 c-49 0 -92 4
-95 10 -3 5 21 35 55 66 58 54 60 58 44 76 -17 18 -17 19 4 34 31 21 27 34 -9
34 -38 0 -36 5 24 60 51 46 50 46 78 -3 8 -14 20 -17 57 -15 l47 3 3 42 c3 42
4 42 35 37 18 -3 86 -24 152 -46z m-2085 -232 c29 -13 47 -27 40 -31 -20 -13
-120 -18 -120 -7 0 11 21 62 26 62 1 0 25 -11 54 -24z m1960 -126 c0 -12 -9
-38 -20 -60 -25 -48 -25 -60 -2 -60 13 0 26 -23 51 -91 41 -111 40 -178 -5
-217 -21 -19 -29 -21 -35 -10 -6 9 -9 6 -9 -12 -1 -18 -15 -36 -50 -62 -57
-44 -57 -56 1 -133 50 -68 71 -112 64 -135 -3 -11 0 -22 8 -27 8 -4 18 -23 22
-40 5 -27 4 -32 -8 -27 -8 3 -17 -2 -21 -11 -5 -13 -1 -15 15 -10 17 6 19 3
15 -22 -2 -15 -5 -31 -5 -35 -1 -3 -10 -4 -21 -1 -11 3 -20 0 -20 -6 0 -6 7
-11 15 -11 18 0 20 -21 4 -37 -17 -17 -65 10 -72 39 -6 20 -8 21 -21 8 -7 -8
-17 -25 -21 -37 -5 -18 -3 -22 8 -17 10 3 13 13 9 27 -5 20 -4 20 11 8 9 -7
17 -19 17 -27 0 -7 7 -17 16 -22 22 -12 8 -35 -17 -29 -14 4 -19 0 -19 -13 0
-17 -26 -33 -46 -29 -5 1 -17 -1 -28 -6 -11 -5 -21 -3 -26 4 -5 10 -9 9 -13
-3 -8 -19 -21 -20 -39 -3 -7 6 -19 12 -25 13 -31 2 -34 5 -29 22 3 9 1 24 -4
32 -9 13 -10 13 -11 0 -1 -8 -1 -18 0 -22 0 -5 -4 -8 -9 -8 -6 0 -10 3 -10 8
0 4 -4 13 -9 21 -7 11 -37 -1 -148 -57 -172 -87 -333 -154 -455 -188 -81 -23
-118 -27 -278 -31 -202 -5 -194 -7 -351 63 -49 22 -55 28 -51 50 7 36 -27 31
-68 -11 -81 -84 -181 -90 -241 -13 -42 52 -58 101 -65 200 -5 69 -3 93 14 140
l20 58 -29 25 c-29 23 -29 26 -15 47 26 37 19 57 -9 26 -29 -34 -41 -35 -56
-7 -9 17 -8 23 2 30 8 4 16 4 19 -1 7 -11 50 16 50 32 0 7 -6 6 -15 -2 -12
-10 -15 -10 -15 4 0 9 -6 16 -12 16 -9 0 -8 4 2 10 13 9 13 10 0 10 -8 0 -24
-14 -35 -30 -23 -34 -28 -36 -46 -14 -11 13 -8 20 17 43 16 15 38 33 49 40 18
11 16 12 -15 7 -19 -3 -43 -16 -53 -28 -18 -22 -19 -22 -33 -3 -12 16 -12 22
1 41 21 32 19 36 -12 32 -25 -3 -29 1 -44 52 -10 30 -18 76 -18 103 l-1 47 84
0 c92 0 104 6 115 63 6 28 16 37 77 67 39 19 85 48 103 63 18 15 36 27 39 27
4 0 29 -22 55 -50 77 -81 131 -66 131 35 1 61 -6 62 83 -11 53 -43 201 -124
227 -124 17 0 32 57 23 90 -3 11 -4 20 -2 20 2 0 40 -23 85 -51 45 -28 94 -51
109 -52 26 -2 26 -1 24 60 l-1 62 66 -67 c72 -73 124 -102 150 -85 22 13 33
70 22 111 -11 43 -2 40 40 -14 57 -74 232 -240 237 -226 4 10 8 10 20 0 13
-10 14 -8 11 12 -2 15 -9 24 -17 22 -8 -2 -34 16 -58 40 -54 52 -213 233 -213
242 0 12 31 6 63 -11 26 -15 57 -18 164 -18 l132 0 36 -35 c26 -25 35 -41 32
-57 -3 -15 1 -23 10 -23 10 0 12 6 8 20 -6 19 -2 20 63 20 61 0 70 -2 75 -20
3 -11 10 -20 17 -20 7 0 9 8 5 20 -6 18 -2 20 34 20 32 0 44 5 57 25 15 23 15
27 -7 62 -12 21 -42 64 -66 96 l-43 57 120 0 c114 0 120 -1 120 -20z m-1520
-75 c14 -8 52 -14 86 -15 l62 0 11 -44 c16 -66 14 -76 -13 -76 -24 0 -186 123
-186 141 0 12 11 11 40 -6z m-170 -51 c0 -40 -6 -42 -37 -12 -29 27 -29 36 0
47 30 12 37 6 37 -35z m536 23 c12 -11 32 -107 23 -107 -17 0 -113 66 -139 95
l-25 28 68 -6 c37 -2 70 -7 73 -10z m143 -23 c19 -24 25 -26 65 -20 l45 7 10
-38 c14 -48 14 -60 1 -68 -13 -8 -91 49 -145 104 -34 36 -37 41 -18 41 12 0
31 -12 42 -26z m2195 -52 c2 -4 -44 -82 -104 -172 -143 -218 -137 -210 -167
-210 -32 0 -69 -38 -198 -203 -131 -169 -254 -346 -345 -498 -41 -68 -149
-236 -241 -374 -202 -304 -265 -415 -234 -415 8 0 45 43 82 96 58 83 68 93 75
74 9 -25 68 -280 68 -294 0 -6 -26 -23 -57 -39 -43 -20 -59 -24 -64 -15 -6 10
-15 9 -38 -5 -37 -22 -71 -22 -109 0 -42 24 -74 8 -92 -46 -8 -25 -21 -43 -34
-47 -25 -8 -232 -109 -249 -122 -7 -5 -28 -15 -47 -23 -37 -14 -61 -33 -151
-116 -31 -29 -60 -53 -65 -53 -5 0 -21 -11 -36 -25 -47 -43 -63 -29 -18 16 22
22 40 44 41 47 1 4 2 26 3 49 1 23 4 44 7 46 2 1 24 15 47 31 71 45 81 79 95
322 1 22 8 48 16 58 11 13 11 20 3 28 -7 7 -12 23 -12 36 0 17 -19 42 -62 82
-75 70 -80 62 87 144 96 48 256 98 270 84 2 -2 -19 -32 -46 -67 -27 -35 -48
-69 -46 -75 2 -6 14 -12 28 -13 18 -2 32 8 59 43 41 56 169 202 290 334 115
124 196 221 255 306 27 38 66 92 87 120 21 28 38 55 38 60 0 13 203 234 212
231 10 -3 288 275 288 288 0 6 -6 19 -13 30 -16 21 -124 37 -382 54 -365 25
-335 21 -316 50 7 11 31 11 157 -2 82 -9 187 -19 234 -21 47 -3 148 -10 225
-15 77 -5 142 -8 144 -5 2 2 -8 22 -23 44 -32 48 -32 50 -2 50 14 0 37 11 53
24 15 13 61 35 102 50 41 15 86 35 100 46 26 20 76 27 85 12z m-2156 -1738
c21 -6 31 -24 13 -24 -5 0 -22 -5 -38 -11 -87 -36 -162 -59 -190 -59 -28 0
-32 3 -30 26 1 15 -4 29 -12 32 -9 3 -11 0 -6 -7 14 -24 -4 -60 -33 -63 -38
-4 -43 -43 -8 -60 14 -6 26 -15 26 -20 0 -4 7 -8 15 -8 16 0 85 -41 85 -50 0
-3 -9 -11 -20 -18 -15 -9 -26 -10 -41 -1 -31 16 -38 0 -10 -22 22 -18 25 -18
49 -3 30 20 85 21 135 3 44 -16 46 -27 11 -62 -31 -31 -84 -41 -165 -32 l-60
7 7 -50 c4 -32 2 -52 -5 -56 -6 -4 -11 -33 -11 -65 l0 -59 -45 -6 c-42 -7 -46
-5 -77 30 -52 59 -78 97 -78 113 0 23 35 73 44 64 4 -5 7 -1 5 7 -1 8 2 23 6
34 11 25 -14 66 -56 90 -18 11 -30 15 -26 9 8 -13 -10 -30 -38 -35 -14 -2 -20
2 -19 14 1 10 -3 15 -8 12 -5 -3 -7 -12 -4 -20 4 -10 -2 -14 -20 -14 -21 0
-25 4 -20 17 4 10 4 14 0 10 -10 -10 -34 12 -34 32 0 9 -11 39 -24 68 l-25 52
47 15 c26 8 72 20 102 27 30 6 73 18 95 25 22 7 57 15 77 19 35 7 36 6 34 -25
-1 -17 -7 -35 -15 -39 -18 -12 -10 -65 12 -69 20 -4 24 24 5 31 -10 3 -8 10 5
24 11 12 17 32 15 49 -3 27 0 29 77 50 78 22 205 30 253 18z m218 -75 c27 -25
18 -39 -25 -39 -24 0 -83 -31 -111 -59 -17 -17 -100 -55 -106 -48 -2 2 -6 22
-8 44 -2 22 -6 45 -9 50 -9 15 13 31 79 58 73 29 145 27 180 -6z m-276 -59 c6
-12 10 -36 8 -55 l-3 -35 -64 30 c-70 33 -70 40 -6 64 53 19 53 19 65 -4z
m-654 -25 c21 -32 44 -109 36 -121 -7 -10 -168 -126 -264 -190 -32 -21 -58
-41 -58 -45 0 -3 16 -17 35 -30 47 -32 47 -68 0 -114 -42 -42 -53 -44 -60 -7
-3 15 -10 40 -15 56 -7 21 -5 36 6 58 8 16 12 37 9 48 -7 22 -68 70 -89 70
-20 0 -20 7 2 46 41 74 80 114 150 155 62 37 198 96 224 98 4 1 15 -10 24 -24z
m999 -37 c-4 -24 -11 -71 -16 -106 -5 -35 -7 -72 -4 -83 4 -11 3 -33 0 -50 -8
-34 -60 -99 -80 -99 -7 0 -25 -10 -40 -22 -25 -19 -27 -25 -21 -66 6 -44 5
-47 -36 -84 -23 -21 -45 -38 -49 -38 -8 0 -24 -40 -21 -52 1 -5 -2 -8 -7 -8
-5 0 -28 -20 -52 -45 -24 -25 -48 -45 -55 -45 -7 0 -20 23 -29 50 -9 28 -28
64 -42 81 -23 27 -24 32 -11 47 8 9 22 32 31 50 l16 34 -61 64 c-60 62 -61 65
-62 120 l-1 56 53 -6 c30 -4 72 -1 94 5 47 12 98 58 98 87 0 13 10 24 28 31
15 6 45 22 67 35 82 51 136 75 198 85 4 0 5 -18 2 -41z m-1280 2 c3 -5 1 -10
-4 -10 -6 0 -11 5 -11 10 0 6 2 10 4 10 3 0 8 -4 11 -10z m-25 -28 c0 -8 -119
-144 -144 -164 -17 -13 -34 -16 -86 -11 -36 3 -68 9 -72 12 -4 4 1 24 13 45
19 35 19 40 4 62 -14 22 -22 24 -100 24 -74 0 -87 -3 -105 -22 -21 -23 -23
-30 -20 -94 1 -39 0 -42 -29 -46 -34 -5 -38 4 -43 92 l-3 45 68 22 c49 16 99
22 184 25 111 3 118 2 121 -17 8 -38 39 -46 51 -13 11 31 161 69 161 40z
m-309 -52 c23 -13 24 -23 2 -71 -14 -28 -25 -38 -48 -42 -36 -5 -46 7 -43 50
1 18 -1 35 -4 39 -9 8 -22 -42 -15 -59 8 -21 -5 -33 -40 -40 -34 -7 -43 4 -43
52 0 51 24 70 93 74 34 2 66 4 70 5 5 1 17 -3 28 -8z m724 -52 c17 -6 49 -28
71 -50 38 -36 41 -42 31 -67 -12 -33 -1 -57 67 -134 l50 -56 58 6 c55 6 61 4
88 -22 17 -16 30 -37 30 -47 0 -14 -8 -17 -42 -16 -32 1 -54 -5 -83 -24 -22
-15 -60 -32 -85 -38 -25 -7 -51 -17 -57 -22 -19 -15 -72 10 -78 36 -2 11 -6
30 -7 41 -3 18 -10 20 -77 17 -67 -2 -77 0 -109 25 -20 16 -40 31 -46 35 -6 4
-3 16 7 32 27 41 22 54 -27 61 -24 4 -53 4 -65 0 -19 -6 -71 19 -71 34 0 4 32
29 70 56 39 28 103 73 143 102 42 31 78 50 87 47 8 -4 29 -11 45 -16z m1701
-40 c2 -18 -8 -36 -31 -61 -18 -19 -35 -46 -37 -59 -2 -17 -10 -24 -30 -26
-28 -3 -36 -16 -18 -27 6 -4 24 -4 40 0 24 5 32 14 40 45 19 71 31 57 25 -31
-3 -55 -10 -88 -21 -100 -9 -10 -13 -23 -9 -29 8 -13 -13 -80 -25 -80 -5 0
-12 9 -15 20 -5 16 -15 20 -47 20 -27 0 -38 -4 -35 -12 2 -8 15 -12 30 -10 25
3 27 1 27 -35 0 -22 5 -44 11 -50 13 -13 -39 -36 -72 -31 -18 2 -26 13 -34 44
-5 23 -17 49 -25 59 -10 12 -15 42 -16 84 -2 83 -10 132 -29 177 -19 47 -19
60 2 68 17 7 63 -29 63 -50 0 -6 7 -14 15 -18 11 -4 15 1 15 17 0 34 19 52 75
73 28 10 56 24 64 32 19 18 33 11 37 -20z m134 -107 c0 -20 -69 -105 -78 -96
-9 8 -2 107 9 127 8 15 12 15 39 2 16 -9 30 -23 30 -33z m-2420 8 l38 -12 1
-87 c1 -54 7 -102 16 -124 20 -46 10 -47 -82 -4 -47 21 -88 32 -135 36 -65 4
-68 4 -68 -17 0 -43 18 -61 61 -61 41 0 72 -12 97 -37 8 -7 40 -21 72 -30 48
-13 60 -20 65 -41 5 -21 -1 -32 -39 -64 -24 -21 -55 -54 -67 -74 -19 -32 -21
-45 -16 -114 6 -74 5 -78 -15 -84 -12 -3 -36 2 -54 10 -34 16 -33 12 -49 154
-9 81 -13 97 -31 114 -19 20 -68 21 -87 2 -21 -21 -80 -56 -95 -56 -9 0 -11
12 -6 49 5 41 3 54 -14 76 -12 15 -28 51 -37 80 -20 71 -57 115 -97 115 -37 0
-68 -16 -68 -35 0 -8 -13 -21 -30 -30 -35 -18 -36 -22 -13 -54 35 -51 60 -112
55 -136 -6 -31 -13 -31 -42 0 -16 17 -34 25 -56 25 -18 0 -54 7 -79 16 -68 22
-88 17 -99 -29 -9 -33 -6 -46 22 -103 18 -35 32 -75 32 -88 0 -55 85 -83 145
-47 44 26 41 26 61 -4 15 -23 15 -27 -6 -62 -14 -24 -23 -55 -24 -84 -1 -42 4
-51 57 -112 63 -71 57 -69 144 -51 24 5 35 32 37 88 1 29 3 31 36 28 52 -4
146 -51 159 -79 16 -34 16 -34 -38 -32 -42 2 -56 -3 -99 -34 -27 -21 -55 -37
-61 -37 -7 0 -30 -9 -52 -21 -27 -13 -39 -25 -35 -35 4 -11 -6 -14 -47 -14
-61 0 -72 -6 -81 -42 -8 -33 -62 -98 -82 -98 -8 0 -20 23 -29 54 -15 50 -15
56 2 91 l18 37 -35 29 c-63 54 -60 52 -75 33 -25 -36 -34 -87 -26 -164 4 -42
13 -86 20 -98 15 -29 12 -28 -89 13 -63 26 -100 35 -142 35 -57 0 -58 -1 -58
-28 0 -39 17 -52 68 -52 31 0 53 -7 78 -26 18 -14 64 -34 101 -43 60 -14 67
-19 70 -43 3 -24 -4 -32 -57 -65 -59 -38 -71 -58 -48 -81 23 -23 59 -13 103
31 80 78 81 79 96 65 8 -7 25 -18 39 -24 14 -7 46 -30 72 -53 52 -46 63 -49
78 -21 15 29 -13 84 -56 111 -45 28 -66 48 -59 60 11 16 34 10 77 -21 28 -21
53 -30 78 -30 21 0 43 -6 49 -14 15 -18 48 -9 54 15 3 10 1 19 -3 19 -5 0 -11
8 -14 18 -4 9 -29 32 -58 51 -47 30 -56 33 -105 28 -29 -3 -55 -2 -58 3 -3 5
28 44 68 86 l74 78 21 -20 c12 -11 44 -28 73 -38 28 -10 71 -34 95 -52 48 -37
61 -40 111 -22 28 10 36 10 50 -4 14 -15 14 -19 2 -34 -21 -25 -68 -136 -63
-149 3 -6 -6 -34 -19 -62 -20 -44 -22 -59 -16 -109 16 -120 17 -139 3 -166 -8
-16 -19 -28 -24 -28 -12 0 -21 -29 -36 -122 -3 -21 -10 -38 -14 -38 -4 0 -15
-18 -25 -40 -13 -30 -24 -40 -41 -40 -34 0 -105 34 -159 75 -27 20 -65 45 -86
56 -21 10 -55 34 -75 51 -20 18 -42 33 -49 33 -20 0 -234 273 -259 329 -13 28
-46 82 -75 119 -95 123 -122 222 -122 439 -1 134 4 178 20 178 4 0 27 -18 51
-40 50 -46 63 -49 77 -17 15 31 -17 86 -68 117 -40 25 -53 60 -21 60 9 -1 33
-14 52 -30 24 -21 45 -30 69 -30 19 0 49 -5 68 -12 18 -6 36 -9 40 -5 14 15
-27 76 -72 107 -42 29 -53 32 -101 28 -39 -3 -54 -1 -54 8 0 7 32 47 70 88 39
42 70 81 70 87 0 7 -7 17 -16 23 -14 11 -11 18 24 62 93 116 196 200 322 264
75 38 80 39 295 60 121 11 225 23 230 25 22 8 90 4 125 -6z m1940 -6 c0 -9 8
-25 17 -35 28 -31 27 -174 -2 -244 -30 -74 -46 -91 -89 -100 -30 -5 -42 -2
-72 21 -20 16 -66 40 -103 55 -51 22 -70 35 -83 61 -21 40 -15 47 51 73 24 9
60 30 79 46 31 26 40 28 84 23 58 -7 74 6 54 46 -16 32 -11 51 14 51 10 0 22
5 25 10 10 16 25 12 25 -7z m-1819 -13 c20 -11 26 -54 9 -65 -12 -7 -14 -58
-3 -69 5 -4 12 -26 18 -49 6 -27 16 -43 28 -45 28 -6 87 46 107 94 19 43 21
44 65 44 46 0 56 -9 31 -29 -11 -9 -19 -9 -35 1 -26 16 -40 2 -15 -17 18 -13
17 -16 -26 -59 -45 -46 -46 -46 -119 -48 -74 -3 -74 -3 -93 29 -26 44 -36 203
-13 203 8 0 15 5 15 10 0 13 6 13 31 0z m1734 -61 c-3 -4 -23 -5 -45 -2 -35 5
-46 1 -87 -31 -25 -20 -63 -41 -82 -46 -56 -16 -75 -34 -67 -66 13 -51 43 -80
106 -103 34 -12 76 -36 94 -52 61 -53 150 -30 184 49 18 42 20 43 27 21 4 -13
16 -33 26 -45 11 -11 22 -32 24 -45 6 -28 30 -49 59 -49 12 0 29 -7 39 -15 10
-7 52 -17 93 -20 87 -9 84 -2 54 -139 -11 -50 -20 -101 -19 -115 0 -25 1 -25
9 -4 6 13 17 21 29 20 32 -2 25 -23 -11 -38 -18 -7 -36 -18 -40 -23 -4 -6 -8
-71 -8 -144 0 -154 5 -161 73 -112 38 27 251 110 282 110 6 0 19 -21 28 -47
31 -89 110 -408 114 -456 2 -27 8 -57 13 -67 6 -10 10 -30 10 -43 0 -34 23
-52 40 -31 11 13 11 27 -3 82 -10 37 -22 99 -27 137 -13 100 -45 246 -74 348
-14 48 -26 88 -26 90 0 10 72 39 79 31 9 -9 61 -155 162 -454 33 -96 63 -182
66 -190 3 -8 5 -18 5 -22 -2 -10 -4 -10 54 7 27 8 72 30 99 50 28 19 53 35 57
35 4 0 14 -26 23 -58 9 -31 20 -66 25 -77 5 -11 27 -69 49 -130 21 -60 53
-147 70 -193 27 -72 29 -83 13 -78 -103 29 -367 66 -477 66 -52 0 -95 3 -95 7
0 3 27 36 59 73 45 50 57 70 48 79 -8 8 -1 11 31 11 23 0 42 5 42 10 0 6 -2
10 -4 10 -6 0 -341 59 -391 70 -27 5 -187 32 -355 60 -168 28 -406 73 -530
100 -124 28 -238 52 -255 54 -16 3 -64 14 -105 26 -41 11 -92 25 -113 29 -21
5 -44 14 -50 20 -19 19 -26 12 -20 -23 3 -19 2 -47 -1 -62 -7 -26 -9 -26 -59
-20 -29 4 -55 10 -59 14 -4 4 0 31 8 61 12 48 12 73 0 60 -2 -2 -39 -74 -81
-159 -112 -225 -259 -474 -275 -468 -5 2 -28 21 -52 43 -24 22 -153 141 -288
264 -277 253 -334 308 -305 293 67 -36 217 -150 297 -227 223 -214 285 -258
332 -237 42 19 133 164 233 372 36 73 37 83 32 185 -1 17 3 49 10 71 l11 42
93 -25 c108 -29 139 -46 137 -76 -5 -60 -24 -51 210 -93 209 -36 611 -118 785
-158 688 -159 785 -179 785 -160 0 12 -57 29 -222 68 -76 18 -140 35 -143 38
-3 3 -1 38 5 79 7 48 8 143 3 269 l-8 195 -8 -155 c-6 -123 -11 -158 -24 -167
-13 -10 -14 -17 -4 -42 11 -24 10 -35 -7 -67 -11 -22 -17 -44 -15 -51 2 -7 0
-21 -6 -32 -9 -16 -16 -18 -43 -11 -18 5 -54 14 -80 21 -27 6 -48 14 -48 16 0
3 11 18 24 33 29 35 41 107 25 144 -7 14 -31 37 -55 51 -23 14 -56 41 -72 61
-78 95 -155 82 -181 -31 -27 -116 -46 -131 -81 -62 -25 49 -46 68 -67 60 -16
-6 -52 10 -100 44 -38 28 -105 53 -140 53 -14 0 -38 -13 -55 -30 -27 -27 -30
-36 -24 -69 7 -48 -10 -101 -33 -101 -9 0 -84 13 -166 29 -83 16 -169 32 -191
36 -34 5 -41 10 -37 24 2 10 -2 34 -10 53 -12 28 -23 37 -59 47 -41 12 -45 16
-67 71 -23 60 -22 80 4 80 25 0 39 43 36 113 -1 17 -16 44 -41 71 l-40 43 26
26 c15 15 31 24 36 21 20 -13 138 -23 162 -14 13 5 40 29 58 54 58 79 62 53 9
-51 -28 -54 -49 -98 -48 -99 1 -1 49 -17 107 -37 58 -20 224 -77 370 -128 146
-50 275 -94 287 -96 18 -4 23 0 29 23 4 16 24 98 45 182 26 103 38 170 36 205
l-3 52 -99 52 c-55 29 -104 54 -109 56 -5 1 -1 16 9 31 18 28 18 29 0 42 -22
16 -98 19 -125 4 -14 -7 -29 -3 -65 16 -26 15 -49 33 -52 40 -3 8 -25 27 -48
43 -34 23 -46 27 -54 17 -6 -7 -23 -11 -39 -8 -34 5 -38 0 -97 -113 -26 -49
-48 -91 -50 -93 -2 -2 -17 26 -35 62 l-31 66 -47 -6 c-116 -14 -152 -16 -152
-8 0 17 93 102 106 97 33 -12 119 40 234 141 41 36 99 78 130 92 30 15 68 33
84 42 17 8 50 23 75 33 42 16 47 16 58 2 7 -9 10 -19 8 -24z m552 -20 c-5 -20
-5 -20 13 -4 31 28 93 31 132 6 67 -43 79 -59 83 -103 2 -33 8 -46 26 -55 25
-13 84 -126 69 -131 -6 -2 -10 -13 -10 -24 0 -17 6 -19 42 -16 39 3 44 0 76
-42 19 -25 45 -58 59 -75 27 -31 73 -126 73 -149 0 -15 -71 -67 -118 -86 -29
-11 -34 -11 -47 6 -18 23 -14 37 11 44 36 10 82 43 93 67 17 38 13 63 -16 94
-16 16 -38 40 -51 54 -36 41 -71 31 -101 -27 -28 -55 -49 -61 -57 -18 -5 22
-15 32 -39 40 l-32 10 5 80 c5 94 -4 103 -76 77 -52 -20 -58 -17 -42 13 7 13
9 33 5 48 -4 15 -9 40 -11 55 -6 47 -22 67 -53 67 -16 0 -34 -7 -41 -15 -7 -8
-19 -15 -27 -15 -12 0 -13 -6 -7 -27 12 -45 11 -88 -3 -85 -15 2 -17 -14 -4
-23 11 -6 41 22 41 38 -1 7 -7 29 -14 49 -12 32 -11 37 3 42 9 3 24 11 34 18
27 20 51 -2 55 -48 1 -21 7 -48 13 -59 7 -15 6 -28 -5 -50 -20 -37 -21 -61 -3
-48 6 5 34 18 60 27 62 23 71 15 62 -57 -7 -54 -8 -55 -31 -45 -28 13 -31 25
-6 32 9 2 -3 4 -28 3 -25 0 -52 3 -59 7 -17 11 -26 -1 -13 -17 9 -10 7 -19 -8
-35 -11 -12 -20 -32 -20 -46 0 -14 -4 -27 -9 -30 -4 -3 -11 -19 -14 -35 -5
-23 -12 -30 -37 -33 -26 -4 -33 0 -51 29 -22 36 -20 74 6 103 11 12 13 34 8
88 -6 68 -7 71 -23 57 -9 -9 -24 -13 -33 -9 -18 6 -13 61 8 103 l13 25 16 -32
c9 -18 18 -32 20 -32 9 0 -2 51 -14 65 -21 25 -4 74 38 111 44 39 46 40 39 13z
m-2902 -111 c9 -13 23 -47 31 -76 9 -29 27 -66 41 -82 22 -27 24 -34 14 -62
-6 -17 -11 -49 -11 -72 1 -34 3 -38 13 -26 7 9 28 22 47 30 19 7 46 23 60 35
61 53 88 37 101 -61 5 -38 12 -84 15 -101 7 -37 4 -39 -34 -19 -15 8 -42 16
-61 19 -43 7 -52 17 -15 17 30 0 74 23 64 33 -6 7 -86 -12 -118 -26 -17 -8
-28 -8 -42 1 -27 17 -35 -3 -9 -22 21 -14 21 -16 5 -50 -9 -19 -21 -38 -26
-41 -5 -3 -5 -18 0 -36 10 -33 -3 -176 -17 -189 -4 -4 -26 -10 -48 -12 -38 -5
-42 -3 -85 49 -74 89 -75 93 -40 163 29 58 30 61 15 91 -21 40 -36 44 -76 20
-19 -12 -45 -21 -59 -21 -32 0 -70 26 -70 48 0 9 -14 46 -30 80 -44 94 -38
141 16 127 16 -4 52 -9 80 -12 41 -4 58 -11 80 -34 32 -34 49 -36 64 -10 18
35 11 76 -25 136 -20 32 -34 58 -33 59 23 9 45 27 53 44 14 31 78 31 100 0z
m896 -2 c15 -13 25 -27 22 -30 -4 -3 -31 -6 -62 -6 l-55 0 29 30 c16 17 31 30
33 30 2 0 17 -11 33 -24z m-516 -7 c67 -18 155 -61 155 -75 0 -30 -71 -13
-115 27 -12 11 -39 19 -70 21 -38 2 -51 7 -53 21 -4 20 23 22 83 6z m2790 -9
c3 -5 1 -10 -4 -10 -6 0 -11 5 -11 10 0 6 2 10 4 10 3 0 8 -4 11 -10z m-2075
-75 c0 -19 5 -35 10 -35 6 0 10 -6 10 -13 0 -7 29 -27 65 -45 77 -38 84 -50
84 -153 0 -41 9 -166 20 -279 11 -113 30 -308 42 -435 l22 -230 -41 -85 c-79
-163 -152 -257 -169 -215 -3 11 -8 13 -12 6 -9 -14 -88 41 -171 119 -55 51
-61 60 -40 58 19 -2 26 2 28 18 2 17 -5 23 -42 34 -54 15 -60 30 -12 30 43 0
57 27 27 52 -34 27 -26 40 15 23 48 -20 61 -19 67 5 4 15 -3 22 -36 33 -46 15
-53 25 -35 50 12 15 17 15 53 3 30 -11 42 -11 47 -3 14 21 8 35 -16 41 -23 6
-24 9 -19 68 6 73 21 95 51 79 36 -19 47 -12 66 42 10 28 21 58 23 65 3 7 -3
12 -14 12 -14 0 -23 -11 -32 -40 -12 -41 -17 -45 -39 -32 -10 7 -6 22 18 70
30 57 33 60 57 51 32 -12 30 -12 36 12 4 15 -1 22 -19 29 -22 9 -23 12 -12 30
7 12 25 24 40 27 18 3 30 15 37 35 9 27 9 29 -9 23 -12 -4 -20 -2 -20 4 0 6
-12 11 -27 10 -16 0 -45 3 -66 7 -25 4 -46 2 -62 -6 -23 -12 -51 -11 -87 5
-13 5 -18 3 -18 -9 0 -12 -9 -16 -34 -16 -34 0 -35 2 -42 45 -3 25 -4 48 -2
51 3 2 35 -7 72 -20 57 -21 68 -22 73 -10 7 20 -2 27 -61 49 -55 20 -51 25 37
44 39 8 61 19 68 33 6 11 9 21 7 23 -9 9 -178 62 -183 57 -3 -3 -5 -13 -5 -22
0 -12 14 -21 46 -30 25 -7 41 -16 37 -20 -10 -8 -94 -33 -98 -28 -2 2 -10 57
-17 123 -16 132 -10 174 27 176 20 0 20 0 0 8 -11 5 -26 6 -32 4 -7 -3 -13 0
-13 6 0 6 3 10 8 10 19 -3 32 2 32 13 0 9 -3 9 -11 1 -6 -6 -18 -9 -26 -6 -7
3 -21 -1 -31 -9 -9 -9 -35 -18 -57 -21 -22 -3 -57 -9 -77 -13 -38 -7 -38 -6
-38 27 0 19 -7 45 -16 57 -14 21 -14 22 8 23 13 1 82 5 153 8 72 4 181 8 243
9 l112 2 0 -35z m386 10 c21 -16 40 -45 53 -80 27 -72 27 -92 -1 -101 -13 -3
-31 -13 -40 -21 -15 -14 -20 -11 -50 22 -18 21 -42 56 -53 79 -11 23 -29 43
-39 45 -14 2 -17 -1 -13 -13 4 -11 -5 -30 -28 -54 -34 -37 -34 -37 -35 -11 0
15 -10 38 -21 53 -12 15 -20 28 -18 30 2 2 27 11 54 20 28 9 64 25 80 35 41
27 72 25 111 -4z m1231 -17 c-3 -8 -6 -5 -6 6 -1 11 2 17 5 13 3 -3 4 -12 1
-19z m-3852 -55 c-14 -101 -10 -98 -72 -54 -30 22 -54 43 -54 47 -1 8 105 52
125 53 4 1 5 -20 1 -46z m1925 -9 c0 -8 -5 -12 -10 -9 -6 4 -8 11 -5 16 9 14
15 11 15 -7z m2020 -56 c0 -37 -1 -38 -35 -38 -45 0 -135 20 -135 30 0 4 18
10 41 14 24 4 50 16 62 30 18 20 25 22 44 13 18 -8 23 -18 23 -49z m-2125 22
c-3 -5 -10 -10 -16 -10 -5 0 -9 5 -9 10 0 6 7 10 16 10 8 0 12 -4 9 -10z m105
-9 c0 -8 -29 -128 -65 -268 -36 -139 -65 -262 -65 -271 0 -17 6 -18 65 -9 76
11 155 -6 155 -34 0 -26 -10 -28 -43 -8 -39 23 -59 24 -98 3 -42 -21 -64 -75
-49 -119 14 -44 49 -65 105 -65 44 0 45 -1 39 -27 -4 -16 -9 -30 -11 -32 -3
-4 -110 27 -160 46 -7 3 -17 -6 -22 -18 -7 -20 -3 -30 25 -59 19 -20 34 -39
34 -43 0 -4 -19 -7 -43 -7 -24 0 -48 -5 -54 -11 -8 -8 -21 -4 -46 12 -31 20
-36 30 -41 74 -13 108 -46 562 -46 633 l0 75 60 58 c33 31 60 62 60 68 0 14
57 15 65 2 3 -6 -3 -15 -14 -20 -14 -8 -21 -8 -24 2 -3 7 -6 5 -6 -5 -1 -25
13 -22 59 11 44 32 120 40 120 12z m1395 -11 c4 -6 -3 -25 -14 -43 -18 -28
-21 -29 -21 -10 0 13 -8 24 -20 28 -11 3 -20 11 -20 16 0 12 7 11 31 -1 20
-11 28 3 9 15 -5 3 -10 11 -10 16 0 11 35 -5 45 -21z m-105 10 c0 -5 -2 -10
-4 -10 -3 0 -8 5 -11 10 -3 6 -1 10 4 10 6 0 11 -4 11 -10z m-700 -15 c0 -9
11 -27 25 -41 29 -28 32 -44 10 -44 -9 0 -29 -10 -46 -22 l-29 -22 -27 26 -26
26 38 46 c39 48 55 57 55 31z m-1890 2 c0 -2 -10 -12 -21 -23 -22 -19 -22 -19
-10 4 10 18 31 31 31 19z m3595 -66 c17 -15 42 -32 56 -38 17 -7 29 -24 37
-52 7 -23 16 -41 21 -41 4 0 25 29 46 65 21 36 44 65 51 65 8 0 22 -10 32 -22
9 -11 32 -38 50 -58 17 -21 32 -41 32 -45 0 -23 -50 -71 -98 -92 l-55 -24 22
-23 c30 -32 27 -53 -9 -61 -38 -8 -48 -1 -42 30 2 14 0 25 -6 25 -6 0 -17 3
-26 6 -9 3 -16 1 -16 -5 0 -6 7 -11 16 -11 12 0 15 -6 11 -22 -4 -12 -2 -27 4
-34 7 -9 3 -17 -13 -28 -37 -27 -48 -20 -48 28 0 80 -43 98 -96 41 -34 -37
-80 -47 -90 -20 -4 9 -26 27 -50 41 -36 21 -65 58 -52 68 19 15 113 39 151 38
26 0 47 3 47 8 0 28 -24 62 -59 82 -38 22 -40 25 -35 58 12 66 60 75 119 21z
m-1220 -23 c10 -24 20 -47 23 -51 2 -5 -2 -8 -9 -6 -8 1 -27 1 -43 0 -25 -1
-28 -4 -24 -28 3 -16 8 -35 12 -43 4 -10 -6 -31 -30 -58 -40 -47 -53 -50 -148
-31 -66 14 -92 5 -119 -40 -16 -28 -16 -29 28 -76 35 -36 45 -55 45 -80 0 -44
-8 -63 -31 -76 -17 -9 -22 -4 -43 43 -13 29 -38 83 -55 120 -16 37 -37 83 -45
103 l-15 36 -51 -26 c-27 -14 -50 -21 -50 -16 0 6 12 16 27 23 34 16 43 48 15
48 -11 0 -23 -7 -26 -16 -9 -23 -23 -9 -24 25 -1 26 5 31 56 52 31 13 68 29
82 36 14 7 31 13 38 13 7 0 31 9 52 20 22 11 40 18 40 14 0 -3 16 3 36 15 21
13 53 21 82 22 26 0 56 4 67 9 11 5 36 9 56 9 33 1 37 -2 54 -41z m203 26 c15
-11 20 -22 17 -37 -3 -12 1 -42 10 -66 8 -24 13 -46 10 -49 -5 -5 -124 45
-138 58 -5 4 1 27 14 51 31 63 48 71 87 43z m359 -7 c13 -14 -12 -29 -38 -23
-22 4 -32 0 -45 -17 -16 -22 -16 -22 -9 8 3 16 11 32 16 35 11 7 68 4 76 -3z
m-237 -99 c0 -9 7 -24 16 -32 14 -15 19 -14 57 14 40 29 42 30 51 11 7 -16 2
-25 -20 -45 -27 -23 -28 -26 -12 -42 16 -16 16 -18 1 -29 -24 -18 -9 -60 29
-84 51 -31 78 -60 78 -82 0 -17 -8 -14 -52 25 -29 25 -58 46 -64 46 -6 0 -21
11 -34 25 -13 14 -29 25 -37 25 -7 0 -15 -11 -19 -25 -3 -14 -10 -25 -16 -25
-5 0 -28 -20 -51 -45 -43 -45 -67 -57 -67 -32 0 8 22 29 50 48 47 32 50 37 50
76 0 48 -10 57 -87 73 -27 6 -71 26 -97 45 -39 28 -52 32 -68 24 -24 -13 -58
-2 -58 18 0 24 99 7 191 -33 42 -19 85 -34 93 -34 26 0 29 25 7 61 -12 19 -21
49 -21 68 0 28 3 33 20 28 11 -3 20 0 21 6 1 17 38 -65 39 -85z m70 11 c0 -5
-9 -13 -19 -18 -20 -11 -31 2 -31 35 0 11 5 11 25 2 14 -6 25 -15 25 -19z
m737 -4 c55 -33 57 -55 4 -55 -22 0 -42 -4 -46 -9 -3 -5 -20 -13 -38 -16 -17
-4 -47 -14 -65 -22 -43 -21 -54 -9 -40 45 9 36 12 40 22 26 8 -10 23 -14 46
-12 30 2 36 8 45 36 5 17 13 32 19 32 5 0 29 -11 53 -25z m-3867 -162 c44 -47
83 -84 86 -81 3 3 12 43 21 89 9 46 17 90 19 97 2 6 18 12 35 12 28 0 31 -3
25 -22 -51 -175 -60 -354 -26 -498 22 -92 98 -259 134 -295 13 -13 32 -44 42
-70 12 -28 70 -106 151 -200 l132 -153 -164 6 c-143 4 -167 3 -190 -12 -21
-14 -24 -20 -15 -36 17 -32 28 -107 21 -142 -5 -23 -14 -34 -31 -39 -24 -7
-24 -7 -2 -8 12 -1 22 -2 22 -3 0 -7 -61 -180 -87 -248 -29 -77 -83 -183 -90
-176 -2 2 1 48 7 102 6 55 13 132 17 172 5 64 8 72 27 73 20 2 20 2 -1 6 -28
5 -32 49 -5 57 9 3 -56 3 -145 0 -160 -5 -162 -5 -165 17 -2 16 -52 54 -85 65
-2 0 1 45 7 100 5 54 16 171 24 259 15 151 39 483 67 892 l12 182 38 -30 c21
-16 74 -69 119 -116z m382 98 c72 -46 68 -50 -34 -42 -3 1 -21 13 -38 28 -29
24 -31 28 -14 34 31 12 38 10 86 -20z m2981 -34 c64 -31 120 -62 123 -70 3 -8
-11 -77 -32 -153 -20 -77 -39 -149 -42 -161 -2 -13 -7 -23 -11 -23 -4 0 -106
36 -226 80 -120 44 -221 80 -224 80 -5 0 85 86 112 108 9 6 19 12 22 12 10 0
109 -67 145 -99 39 -35 60 -28 60 21 0 31 -33 71 -94 114 -17 12 -26 26 -22
32 11 19 29 14 76 -20 29 -21 53 -31 71 -30 14 2 43 -4 63 -12 31 -13 38 -13
42 -2 10 25 -24 73 -75 105 -53 34 -63 36 -128 25 -28 -4 -43 -3 -43 4 0 11
52 52 60 47 3 -1 58 -28 123 -58z m-2198 8 c57 -39 96 -55 130 -55 28 0 31 -9
41 -105 3 -38 8 -77 9 -86 2 -8 5 -56 6 -105 l3 -89 -40 3 c-39 3 -41 2 -53
-37 -12 -43 -20 -48 -52 -31 -15 9 -19 7 -19 -7 0 -10 5 -25 10 -33 7 -11 3
-18 -13 -27 -33 -18 -43 -16 -91 21 -24 18 -67 42 -95 52 -55 19 -84 45 -96
82 -6 20 0 25 52 48 32 14 73 37 92 51 28 22 40 25 82 20 58 -7 66 1 48 55
-12 36 -21 44 -83 74 -39 19 -81 34 -94 34 -21 0 -23 3 -17 23 5 12 8 42 7 66
-3 95 71 114 173 46z m1670 -5 c9 -15 73 -40 102 -40 39 0 63 -18 63 -48 0
-22 -11 -34 -55 -62 -32 -21 -55 -42 -55 -52 0 -10 -4 -18 -9 -18 -10 0 -173
59 -179 65 -2 1 17 44 43 94 41 82 47 90 65 81 10 -5 22 -15 25 -20z m513 -52
c23 -16 42 -31 42 -33 0 -13 -98 8 -126 27 -38 26 -42 35 -16 40 27 6 54 -3
100 -34z m-3088 -14 c37 -25 59 -58 46 -71 -3 -4 -22 10 -43 30 -20 21 -40 37
-45 37 -4 0 -8 7 -8 15 0 20 4 19 50 -11z m3510 -30 c88 -67 83 -64 123 -53
20 5 37 13 37 17 0 4 9 18 19 32 16 20 21 22 35 11 10 -9 16 -29 16 -56 0 -49
11 -42 -160 -98 -61 -21 -134 -50 -182 -75 -5 -2 -8 21 -8 51 0 54 0 54 28 49
15 -2 32 -9 39 -14 18 -15 25 9 11 39 -7 14 -28 34 -45 42 -40 20 -42 43 -5
70 35 26 39 26 92 -15z m-1456 -86 c63 -136 120 -277 114 -283 -2 -3 -20 0
-40 5 -33 10 -38 17 -68 90 -38 94 -81 164 -109 180 -16 8 -21 21 -21 49 0 32
4 40 33 54 17 8 33 16 35 16 2 1 27 -50 56 -111z m1376 2 c24 -19 24 -20 4
-20 -11 0 -29 9 -39 20 -24 27 1 27 35 0z m-1414 -168 c14 -30 23 -60 20 -68
-6 -16 -53 -37 -66 -29 -4 2 -11 40 -15 82 -3 43 -9 89 -11 103 -5 25 -5 25
21 -5 14 -16 37 -54 51 -83z m-1678 2 c24 -17 28 -44 11 -72 -9 -14 -8 -34 4
-82 9 -35 21 -68 26 -73 23 -23 101 38 121 95 11 31 20 39 46 44 18 3 40 2 49
-3 13 -8 0 -24 -72 -97 -82 -83 -86 -89 -68 -102 18 -13 18 -14 1 -27 -28 -20
-12 -52 49 -98 50 -38 72 -65 61 -77 -3 -2 -27 14 -54 37 -28 22 -55 41 -60
41 -6 0 -23 11 -38 25 -15 14 -33 25 -40 25 -8 0 -16 -11 -20 -25 -3 -14 -10
-25 -14 -25 -5 0 -29 -21 -54 -47 -37 -38 -48 -45 -59 -34 -10 10 -8 15 8 26
11 8 25 18 30 23 6 5 22 16 36 25 21 14 26 25 25 59 -1 39 -3 42 -41 54 -22 7
-51 16 -65 18 -14 3 -47 19 -73 36 -36 25 -53 30 -76 25 -20 -4 -34 -1 -47 12
-17 17 -17 18 17 21 40 4 90 -9 168 -45 51 -24 104 -34 116 -22 2 3 -7 27 -20
54 -20 38 -25 64 -25 121 0 106 10 122 58 88z m1104 -31 c39 -35 8 -89 -45
-79 -56 11 -84 55 -55 84 17 17 78 15 100 -5z m6993 8 c-3 -5 -41 -35 -85 -65
-62 -44 -85 -55 -104 -50 -34 8 -47 0 -206 -145 -114 -102 -147 -127 -159
-119 -16 10 -125 -25 -491 -155 -361 -129 -430 -142 -798 -152 -123 -4 -160
-8 -195 -24 -306 -139 -805 -334 -1000 -391 -101 -30 -113 -31 -195 -23 -93 9
-187 3 -372 -22 -159 -22 -254 -42 -258 -55 -7 -21 -204 -11 -387 20 -97 17
-199 30 -226 30 -54 0 -111 -24 -143 -59 -11 -12 -43 -28 -72 -37 -66 -19
-188 -8 -362 31 -22 5 -20 9 35 68 67 72 138 176 184 270 l32 64 102 22 c129
27 195 36 195 26 0 -4 -25 -34 -55 -67 -30 -34 -52 -64 -50 -68 2 -4 91 -10
197 -13 198 -5 292 -20 452 -68 37 -11 70 -18 72 -16 2 2 -1 30 -7 61 -6 32
-9 59 -7 61 2 2 46 -3 98 -10 52 -7 148 -19 212 -26 l118 -12 -3 -30 c-2 -26
3 -31 33 -43 65 -24 149 -17 277 22 180 55 241 70 328 82 76 10 149 35 560
192 61 23 130 48 155 56 25 8 54 19 65 23 54 23 306 91 334 91 29 0 31 -2 25
-25 -10 -40 18 -37 241 32 33 10 114 17 235 22 176 6 185 7 185 26 0 16 12 23
65 36 92 24 330 118 330 132 0 6 -12 23 -27 39 -14 15 -25 30 -22 32 9 8 202
77 424 151 127 43 237 81 245 86 20 11 33 11 25 0z m-7361 -91 c33 -12 33 -36
0 -66 -48 -45 -80 -24 -56 37 16 43 19 44 56 29z m961 -17 c-4 -10 -13 -47
-22 -83 -8 -36 -17 -76 -20 -90 -5 -20 -8 -15 -14 25 -4 28 -9 73 -12 102 -4
50 -3 52 22 56 52 8 53 8 46 -10z m855 -39 c14 -3 36 -15 50 -24 53 -37 102
-60 128 -60 22 0 32 -8 46 -32 41 -78 62 -108 74 -108 9 0 11 7 7 20 -3 11 -2
20 2 20 10 0 38 76 48 130 9 42 31 70 57 70 10 0 52 -31 94 -70 41 -38 81 -70
88 -70 44 0 36 -114 -10 -161 -29 -28 -30 -29 -90 -18 l-61 11 14 41 c8 23 25
53 37 67 28 30 38 57 26 65 -5 3 -16 -8 -24 -24 -9 -16 -27 -38 -40 -48 -13
-11 -26 -30 -28 -43 -5 -38 -61 -45 -160 -20 -45 11 -82 20 -84 20 -2 0 -1 6
2 14 9 23 -24 63 -74 93 -63 36 -118 63 -133 63 -18 0 9 -28 34 -36 26 -8 92
-53 125 -84 36 -34 16 -44 -59 -29 -35 6 -86 20 -112 30 -26 11 -57 19 -67 19
-23 0 -25 9 -8 45 8 18 8 31 0 49 -12 28 6 62 42 76 21 9 29 8 76 -6z m-1513
-80 c34 -13 43 -22 43 -40 0 -40 -22 -174 -29 -174 -3 1 -24 17 -46 37 -22 20
-33 34 -25 31 48 -17 60 -18 60 -9 0 5 3 16 6 24 4 10 -7 17 -38 26 -68 17
-81 31 -30 31 55 0 65 21 26 61 -32 33 -27 35 33 13z m-759 -64 c41 -22 72
-44 72 -52 0 -3 -21 -3 -47 0 -59 6 -127 51 -97 63 28 11 32 11 72 -11z m465
-24 c19 -17 29 -36 33 -70 l7 -46 -62 0 c-57 0 -61 -2 -61 -22 0 -39 16 -52
72 -58 l53 -5 13 -150 c9 -104 17 -154 28 -166 8 -9 39 -24 69 -33 48 -16 65
-30 65 -57 0 -5 -6 -9 -14 -9 -24 0 -27 -31 -5 -58 40 -51 63 -132 40 -146 -4
-3 -19 6 -31 19 -17 18 -34 25 -60 25 -20 0 -62 9 -94 20 l-57 19 -16 -34
c-13 -28 -21 -34 -37 -29 -26 8 -120 70 -136 89 -7 8 -19 15 -26 15 -11 0 -10
9 6 41 12 22 23 52 25 67 6 49 17 87 31 102 32 38 47 100 39 163 -12 86 -11
147 3 182 6 17 16 49 21 71 10 39 45 94 59 94 4 0 19 -11 35 -24z m1255 -55
c37 -18 89 -32 330 -87 67 -16 122 -31 122 -35 0 -3 -31 -20 -70 -37 l-69 -31
11 -33 c18 -52 36 -75 71 -88 68 -26 103 -44 144 -72 34 -25 47 -29 74 -23 53
12 76 32 99 91 15 35 28 54 39 54 28 0 61 -30 61 -55 0 -14 9 -48 20 -77 11
-29 20 -54 20 -54 0 -1 -11 -5 -25 -8 -58 -15 -12 -86 55 -86 27 0 55 -10 87
-30 26 -17 58 -30 70 -30 31 0 27 -7 -62 -109 -53 -62 -79 -84 -107 -91 -20
-6 -40 -15 -43 -20 -14 -22 -23 -7 -30 48 -9 77 -34 130 -79 170 -45 39 -83
41 -140 8 -23 -13 -64 -31 -92 -41 -28 -9 -63 -28 -78 -42 -24 -22 -27 -31
-23 -62 4 -24 15 -43 34 -56 15 -11 45 -37 66 -59 45 -45 38 -56 -31 -56 -51
0 -82 -14 -82 -38 0 -16 -16 -29 -93 -76 -26 -16 -29 -16 -72 10 -40 23 -52
25 -100 19 -33 -4 -55 -3 -55 3 0 6 34 45 75 87 41 43 75 86 75 96 0 22 -30
31 -90 27 -42 -3 -45 -5 -72 -59 -26 -51 -69 -91 -84 -77 -3 3 -11 29 -19 58
-12 46 -12 56 3 87 l17 35 -45 39 c-25 21 -48 39 -51 39 -4 0 -16 -22 -27 -48
-19 -43 -20 -58 -13 -131 5 -45 14 -88 20 -94 25 -25 -1 -37 -37 -17 -65 36
-116 52 -179 57 l-73 6 0 -33 c0 -26 -3 -31 -17 -26 -9 4 -37 11 -62 17 -25 5
-49 15 -53 22 -4 7 -8 35 -8 63 0 98 -61 133 -131 75 -20 -17 -48 -33 -62 -36
-30 -8 -34 5 -18 62 7 24 6 35 -6 44 -18 15 -38 55 -47 92 -6 26 -5 27 33 27
39 0 175 16 218 25 14 3 33 -4 53 -21 17 -15 32 -25 34 -23 1 2 13 21 25 42
13 21 31 37 41 37 13 0 21 12 29 44 12 49 18 55 58 62 40 7 43 12 43 55 0 36
12 51 24 30 5 -8 51 -21 119 -36 22 -4 27 -11 27 -33 0 -23 -10 -34 -55 -63
-63 -39 -72 -55 -49 -80 24 -27 46 -24 80 12 16 17 46 44 66 61 l38 29 69 -46
c38 -26 77 -55 87 -66 23 -25 32 -24 45 5 15 33 -10 84 -58 116 -59 40 -68 52
-49 62 11 6 29 0 61 -22 27 -18 67 -35 98 -40 28 -5 60 -11 70 -15 13 -6 17
-2 17 15 0 34 -34 73 -89 103 -43 24 -57 27 -101 21 -27 -4 -50 -3 -50 1 0 4
30 39 67 76 75 77 87 94 80 113 -7 18 -63 27 -105 18 -28 -6 -36 -14 -47 -46
-14 -40 -61 -96 -80 -96 -7 0 -19 26 -28 58 l-16 57 25 23 c13 13 24 31 24 41
0 10 7 24 16 32 14 11 14 13 0 21 -15 8 -22 28 -11 28 3 0 22 -8 43 -19z
m-1071 -113 c95 -85 112 -104 94 -106 -13 -2 -26 -15 -32 -29 -8 -22 -6 -30
16 -53 23 -24 25 -31 19 -87 -6 -58 -8 -61 -36 -65 -37 -6 -122 33 -138 62
-14 26 -54 380 -43 380 3 0 56 -46 120 -102z m-147 17 c0 -11 -12 -15 -45 -15
-33 0 -45 4 -45 15 0 11 12 15 45 15 33 0 45 -4 45 -15z m1020 -55 c1 -25 7
-63 15 -85 8 -21 13 -41 11 -42 -6 -7 -116 49 -116 59 0 5 16 39 36 75 41 72
53 70 54 -7z m75 46 c1 -1 9 -32 19 -71 18 -69 30 -95 47 -95 19 0 84 68 101
108 18 40 21 42 64 42 25 0 44 -4 42 -9 -4 -11 -115 -127 -149 -155 l-23 -19
23 -18 c19 -16 20 -20 8 -25 -9 -3 -18 -12 -21 -20 -7 -18 20 -61 42 -69 27
-8 69 -48 76 -72 10 -31 2 -29 -40 10 -19 17 -49 40 -66 49 -17 9 -42 27 -55
40 -24 22 -26 22 -37 4 -39 -65 -146 -151 -146 -118 0 11 92 78 103 74 4 -1 7
18 7 43 0 52 -19 69 -86 80 -43 7 -104 38 -104 54 0 22 23 21 76 -3 91 -42
134 -32 94 22 -16 21 -22 47 -25 95 l-3 67 27 -6 c14 -4 26 -7 26 -8z m840
-60 c105 -20 217 -41 250 -47 33 -6 70 -12 81 -15 13 -2 24 -14 28 -28 3 -14
12 -31 20 -39 8 -8 28 -34 44 -58 l30 -43 -27 -26 c-15 -14 -30 -33 -34 -44
-5 -13 -14 -17 -30 -13 -12 3 -52 11 -89 17 -37 6 -79 15 -93 20 -29 11 -54
62 -63 123 -6 46 -41 77 -87 77 -29 0 -32 -3 -49 -55 -13 -41 -24 -59 -46 -70
-38 -20 -84 -19 -101 1 -13 16 -110 64 -156 78 -22 7 -58 70 -49 85 3 5 29 17
56 27 28 10 58 27 67 37 11 11 25 16 38 13 11 -3 106 -21 210 -40z m498 -92
c20 -4 37 -11 37 -16 0 -22 -54 -118 -62 -110 -5 5 -4 21 2 36 14 38 13 44
-15 71 -26 27 -22 28 38 19z m-2114 -36 c-8 -14 -14 -17 -21 -10 -15 15 -2 43
16 36 12 -5 13 -10 5 -26z m2055 9 c11 -8 17 -22 14 -37 -3 -23 -4 -22 -31 13
-29 38 -19 51 17 24z m311 -22 c66 -11 106 -23 119 -35 19 -18 19 -19 -5 -24
-41 -10 -231 -36 -253 -35 -20 0 -20 1 2 11 22 11 31 48 12 48 -5 0 -10 8 -10
18 0 19 19 44 29 37 4 -2 51 -11 106 -20z m-2295 -25 c3 -3 28 -26 56 -52 29
-26 49 -49 46 -52 -3 -3 1 -6 9 -6 9 0 28 -13 43 -29 l28 -29 -139 -6 c-76 -4
-155 -9 -175 -12 -30 -5 -39 -2 -44 11 -10 26 8 32 132 45 63 7 114 15 114 18
0 3 -47 2 -105 -1 -72 -4 -105 -2 -105 5 0 21 23 88 31 88 4 0 21 -11 37 -25
17 -14 32 -25 35 -25 14 0 15 35 2 50 -9 10 -13 25 -9 34 6 16 18 12 44 -14z
m1016 -32 l49 -33 -42 -3 c-32 -2 -51 3 -83 24 -29 20 -37 30 -28 35 24 16 54
9 104 -23z m964 -109 c-12 -16 -25 -28 -27 -25 -8 8 25 56 38 56 6 0 1 -14
-11 -31z m-155 -40 c86 -36 99 -44 91 -57 -9 -15 -80 2 -117 29 -21 14 -54 26
-84 29 -38 4 -51 9 -53 23 -3 17 1 18 45 12 26 -4 80 -20 118 -36z m100 0 c16
-16 -29 -9 -50 8 -19 15 -19 15 10 8 17 -3 34 -11 40 -16z m-1989 -70 c15 -5
23 -19 27 -47 4 -23 18 -50 33 -65 23 -24 25 -30 16 -54 -11 -27 -16 -70 -13
-103 1 -13 3 -13 14 0 7 9 27 22 46 30 18 7 45 23 60 35 64 53 93 36 101 -59
5 -59 3 -66 -12 -66 -10 0 -18 4 -18 8 0 4 -24 9 -52 10 -66 2 -232 43 -217
53 7 4 9 17 5 33 -4 17 -2 26 5 26 18 0 4 99 -22 156 -29 65 -35 42 -10 -37
25 -75 26 -98 5 -106 -12 -4 -14 -14 -9 -39 7 -40 2 -41 -43 -14 -25 16 -32
25 -26 38 23 54 6 128 -43 184 -13 14 -12 17 2 25 18 10 117 5 151 -8z m1595
-36 c41 -34 61 -80 74 -168 8 -57 13 -70 28 -69 28 3 19 -9 -41 -51 -138 -97
-205 -131 -279 -139 l-48 -6 40 19 c27 13 34 20 20 20 -26 1 -105 -35 -105
-47 0 -9 -103 -32 -140 -32 -22 0 12 30 62 55 25 12 55 39 71 63 23 35 34 42
60 42 98 0 171 23 120 37 -10 2 -31 22 -47 44 -17 21 -33 39 -36 39 -11 0 -80
67 -80 78 0 24 52 61 112 81 35 12 74 30 88 41 34 27 63 25 101 -7z m-1895
-102 c22 -6 55 -13 75 -16 20 -3 46 -16 59 -30 l23 -24 -54 5 c-30 3 -69 10
-86 16 -18 5 -41 7 -50 4 -29 -9 -45 7 -37 38 4 16 12 25 19 22 7 -2 30 -9 51
-15z m1089 3 c27 -18 32 -44 13 -73 -9 -15 -7 -33 9 -88 11 -37 26 -69 34 -71
27 -5 95 55 109 98 8 23 20 41 29 41 35 3 73 0 79 -6 4 -4 -33 -45 -82 -92
-84 -80 -89 -86 -71 -99 19 -14 19 -15 -2 -35 -21 -21 -23 -21 -85 -6 -140 35
-184 50 -216 74 -24 18 -47 26 -80 27 -37 1 -47 5 -50 20 -4 17 1 18 45 12 27
-3 87 -22 134 -41 90 -37 97 -39 116 -27 9 6 7 19 -11 54 -25 50 -34 174 -15
209 12 23 13 23 44 3z m-2435 -72 c0 -46 -14 -180 -26 -251 -5 -29 -7 -32 -19
-20 -8 8 -22 49 -31 93 -26 128 -35 141 -101 163 -35 12 -59 26 -61 36 -4 18
25 22 161 25 l77 2 0 -48z m-179 -73 c42 -21 73 -72 67 -110 -2 -14 -19 -1
-71 56 -71 78 -70 92 4 54z m2389 -119 c18 -12 2 -12 -25 0 -13 6 -15 9 -5 9
8 0 22 -4 30 -9z m523 -60 c15 -12 23 -27 21 -38 -4 -15 -15 -17 -75 -15 -79
3 -124 19 -96 35 11 5 24 5 37 -2 12 -6 31 -10 43 -8 21 4 21 5 -5 18 -16 7
-28 17 -28 22 0 17 77 8 103 -12z m-2325 -157 l57 -18 -64 -3 c-69 -3 -76 -1
-68 23 8 19 7 19 75 -2z"/>
<path d="M6446 4898 c-9 -34 -7 -38 8 -32 8 3 13 16 12 30 -1 30 -12 31 -20 2z"/>
<path d="M6540 4910 c0 -6 7 -10 15 -10 8 0 15 2 15 4 0 2 -7 6 -15 10 -8 3
-15 1 -15 -4z"/>
<path d="M6636 4886 c3 -9 11 -16 16 -16 13 0 5 23 -10 28 -7 2 -10 -2 -6 -12z"/>
<path d="M6536 4875 c-3 -8 -1 -15 4 -15 6 0 10 7 10 15 0 8 -2 15 -4 15 -2 0
-6 -7 -10 -15z"/>
<path d="M6405 4869 c-4 -6 -5 -12 -2 -15 2 -3 7 2 10 11 7 17 1 20 -8 4z"/>
<path d="M6603 4853 c-3 -10 -8 -21 -10 -25 -2 -4 3 -5 11 -2 8 3 14 14 13 25
-2 24 -6 24 -14 2z"/>
<path d="M6426 4835 c4 -8 10 -15 15 -15 4 0 6 7 3 15 -4 8 -10 15 -15 15 -4
0 -6 -7 -3 -15z"/>
<path d="M6556 4831 c-5 -13 -4 -27 3 -34 17 -17 24 -1 14 30 l-10 28 -7 -24z"/>
<path d="M6387 4667 c-11 -29 -9 -53 4 -40 6 6 9 21 7 34 -3 21 -4 22 -11 6z"/>
<path d="M4893 4653 c-7 -3 -13 -12 -13 -21 0 -15 2 -15 17 1 18 18 16 27 -4
20z"/>
<path d="M5601 4635 c-29 -16 -41 -33 -41 -62 0 -12 -12 -30 -27 -41 -24 -17
-27 -26 -29 -90 -2 -58 1 -73 17 -91 16 -17 18 -25 9 -42 -18 -32 -4 -64 40
-93 46 -30 65 -33 79 -9 7 13 12 14 23 6 7 -7 26 -17 41 -22 23 -9 30 -7 44 9
10 11 25 20 34 20 10 0 20 14 27 39 17 56 15 79 -12 105 -29 30 -39 87 -20
114 10 14 12 34 7 67 -5 36 -13 51 -38 71 -19 14 -45 24 -61 23 -16 0 -38 2
-49 4 -11 3 -31 0 -44 -8z"/>
<path d="M6271 4618 c-5 -15 -4 -27 5 -35 20 -20 34 -15 34 12 0 18 -4 23 -15
19 -11 -5 -13 -2 -9 10 3 9 3 16 0 16 -4 0 -10 -10 -15 -22z"/>
<path d="M6416 4624 c-9 -22 -8 -24 9 -18 8 4 15 12 15 20 0 19 -16 18 -24 -2z"/>
<path d="M4957 4619 c-9 -6 -17 -17 -17 -25 0 -11 5 -10 22 6 24 22 22 34 -5
19z"/>
<path d="M4966 4574 c-9 -8 -16 -21 -16 -27 0 -7 5 -4 11 5 5 10 17 22 27 27
9 6 12 11 5 11 -6 0 -19 -7 -27 -16z"/>
<path d="M4876 4544 c-9 -23 -7 -36 3 -30 12 8 21 46 11 46 -4 0 -11 -7 -14
-16z"/>
<path d="M4990 4531 c-12 -24 -13 -34 -1 -27 9 6 22 46 15 46 -2 0 -8 -9 -14
-19z"/>
<path d="M4902 4508 c-17 -17 -15 -33 3 -18 18 15 19 7 4 -22 -6 -11 -8 -22
-5 -25 10 -10 26 48 18 63 -6 11 -11 11 -20 2z"/>
<path d="M4996 4465 c-11 -8 -17 -17 -14 -20 2 -3 13 4 23 15 21 23 18 25 -9
5z"/>
<path d="M5285 4440 c-4 -6 -10 -8 -15 -5 -12 7 -33 -23 -27 -39 3 -8 -1 -20
-9 -26 -8 -7 -14 -17 -14 -23 0 -6 11 0 25 13 14 13 23 30 20 38 -3 8 5 22 17
33 13 10 20 18 16 19 -4 0 -10 -5 -13 -10z"/>
<path d="M4920 4425 c-7 -9 -10 -18 -7 -21 3 -3 10 4 17 15 13 25 8 27 -10 6z"/>
<path d="M5309 4423 c-1 -5 -3 -21 -5 -37 -3 -27 -2 -28 17 -11 22 21 26 44 4
25 -18 -15 -20 1 -3 18 9 9 9 12 0 12 -7 0 -13 -3 -13 -7z"/>
<path d="M6636 4412 c-3 -6 -1 -14 5 -17 15 -10 25 3 12 16 -7 7 -13 7 -17 1z"/>
<path d="M5190 4395 c-7 -8 -8 -15 -2 -15 5 0 15 7 22 15 7 8 8 15 2 15 -5 0
-15 -7 -22 -15z"/>
<path d="M6750 4350 c0 -5 5 -10 10 -10 6 0 10 5 10 10 0 6 -4 10 -10 10 -5 0
-10 -4 -10 -10z"/>
<path d="M5247 4332 c-20 -21 -22 -37 -5 -26 8 5 9 1 4 -12 -5 -14 -4 -16 4
-8 10 10 24 64 17 64 -2 0 -11 -8 -20 -18z"/>
<path d="M5327 4328 c-2 -7 -5 -16 -6 -21 0 -4 -8 -22 -16 -40 -15 -32 -15
-32 2 -8 24 33 44 81 34 81 -5 0 -11 -6 -14 -12z"/>
<path d="M6168 4298 c-22 -22 -23 -34 -2 -42 13 -5 15 -2 11 13 -3 12 1 21 9
23 7 2 10 8 6 14 -4 6 -13 4 -24 -8z"/>
<path d="M4944 4289 c-18 -57 -5 -91 16 -40 8 20 9 35 2 47 -9 15 -10 15 -18
-7z"/>
<path d="M6767 4304 c-4 -4 -7 -14 -7 -23 0 -11 3 -12 11 -4 6 6 10 16 7 23
-2 6 -7 8 -11 4z"/>
<path d="M4997 4250 c-5 -23 -4 -36 3 -38 7 -3 5 -11 -6 -23 -9 -11 -14 -22
-10 -27 4 -4 17 4 27 17 11 14 16 27 10 30 -5 3 -11 22 -13 41 l-3 35 -8 -35z"/>
<path d="M6726 4245 c-3 -9 0 -15 9 -15 16 0 20 16 6 24 -5 3 -11 -1 -15 -9z"/>
<path d="M6810 4252 c0 -5 7 -15 15 -22 8 -7 15 -8 15 -2 0 5 -7 15 -15 22 -8
7 -15 8 -15 2z"/>
<path d="M6100 4242 c0 -5 7 -13 16 -16 10 -4 14 -1 12 6 -5 15 -28 23 -28 10z"/>
<path d="M6698 4234 c-5 -4 -8 -19 -8 -33 1 -23 2 -24 11 -8 11 19 9 53 -3 41z"/>
<path d="M5066 4215 c-9 -26 -7 -32 5 -12 6 10 9 21 6 23 -2 3 -7 -2 -11 -11z"/>
<path d="M5294 4209 c-19 -22 -19 -22 3 -10 24 12 39 31 25 31 -5 0 -17 -10
-28 -21z"/>
<path d="M6060 4218 c0 -19 26 -42 34 -30 3 5 -3 17 -14 27 -17 15 -20 16 -20
3z"/>
<path d="M5107 4186 c-5 -21 -6 -41 -3 -44 12 -11 17 7 14 44 l-3 39 -8 -39z"/>
<path d="M6663 4200 c-6 -23 -14 -25 -31 -8 -9 9 -12 8 -12 -6 0 -10 9 -20 20
-23 15 -4 19 -11 15 -32 -5 -24 -5 -25 4 -3 6 12 8 29 5 37 -4 8 -1 15 4 15 6
0 10 9 9 20 -1 11 -3 20 -5 20 -2 0 -6 -9 -9 -20z"/>
<path d="M6020 4201 c0 -5 9 -19 20 -32 19 -23 19 -23 20 -3 0 20 -17 44 -32
44 -4 0 -8 -4 -8 -9z"/>
<path d="M5155 4190 c-6 -9 -45 -120 -45 -127 0 -1 4 -3 8 -3 5 0 14 18 21 40
7 22 16 38 21 35 6 -4 10 3 10 14 0 10 3 26 6 35 7 17 -11 22 -21 6z"/>
<path d="M5225 4168 c-3 -13 -6 -45 -8 -73 -1 -31 -8 -56 -19 -67 -10 -10 -18
-23 -18 -29 0 -7 13 5 30 26 26 33 30 45 29 101 -1 67 -5 79 -14 42z"/>
<path d="M6136 4172 c-3 -5 1 -15 9 -22 16 -14 20 -3 6 19 -5 8 -11 9 -15 3z"/>
<path d="M5895 4150 c-4 -12 -5 -24 -2 -27 3 -2 8 5 12 17 4 12 5 24 2 27 -3
2 -8 -5 -12 -17z"/>
<path d="M6732 4140 c0 -14 2 -19 5 -12 2 6 2 18 0 25 -3 6 -5 1 -5 -13z"/>
<path d="M5980 4125 c0 -14 4 -25 9 -25 4 0 6 11 3 25 -2 14 -6 25 -8 25 -2 0
-4 -11 -4 -25z"/>
<path d="M6030 4133 c0 -5 5 -15 10 -23 8 -12 10 -11 10 8 0 12 -4 22 -10 22
-5 0 -10 -3 -10 -7z"/>
<path d="M5421 4104 c-6 -14 -11 -34 -11 -45 0 -30 28 -90 52 -110 35 -32 168
-64 168 -41 0 4 13 13 30 20 25 12 32 11 44 -1 28 -28 74 -40 129 -33 74 10
117 53 121 120 3 52 -15 89 -34 70 -8 -8 -9 -14 -1 -18 20 -13 13 -74 -11 -96
-19 -18 -32 -21 -81 -18 -68 5 -110 31 -117 74 -3 18 -12 30 -24 32 -23 5 -36
-14 -36 -50 0 -39 -32 -68 -74 -68 -77 0 -145 75 -132 145 8 41 -7 54 -23 19z"/>
<path d="M5171 4064 c-12 -15 -21 -31 -21 -37 0 -6 11 4 25 23 14 19 25 35 25
37 0 9 -11 0 -29 -23z"/>
<path d="M5292 4067 c-15 -34 -16 -67 -2 -67 13 0 23 41 18 71 -4 24 -5 24
-16 -4z"/>
<path d="M5450 3160 c0 -6 -11 -8 -27 -4 -28 7 -28 7 -9 -15 23 -25 42 -27 50
-5 9 23 7 34 -4 34 -5 0 -10 -5 -10 -10z"/>
<path d="M5256 3081 c-7 -10 40 -51 58 -51 6 0 17 4 25 9 8 6 24 6 38 0 17 -6
23 -5 23 5 0 17 -42 28 -75 20 -17 -4 -32 -1 -44 10 -11 10 -21 13 -25 7z"/>
<path d="M5520 2904 c0 -3 7 -12 15 -20 13 -13 12 -19 -7 -44 -21 -29 -21 -30
-3 -70 24 -53 36 -62 59 -44 11 8 15 14 9 14 -18 0 -47 70 -34 83 17 17 13 52
-7 70 -19 17 -32 22 -32 11z"/>
<path d="M6545 2548 c-19 -23 -35 -32 -50 -30 -26 4 -44 -16 -26 -28 7 -4 27
-7 44 -6 25 1 35 7 46 30 7 16 26 34 42 40 37 13 37 26 0 26 -21 0 -37 -10
-56 -32z"/>
<path d="M7161 2522 c-1 -33 -7 -59 -16 -69 -8 -8 -13 -19 -10 -24 10 -16 20
-10 34 21 10 23 11 42 3 78 l-10 47 -1 -53z"/>
<path d="M7107 2305 c3 -9 -2 -22 -12 -29 -13 -9 -16 -20 -11 -39 3 -15 11
-27 16 -27 6 0 8 11 4 25 -4 16 0 30 10 40 15 15 12 45 -5 45 -4 0 -6 -7 -2
-15z"/>
<path d="M4185 2510 c4 -14 14 -54 22 -89 15 -61 15 -65 -3 -78 -14 -10 -16
-18 -8 -41 11 -33 30 -31 27 4 -1 13 2 24 8 24 16 0 10 67 -12 127 -22 60 -48
100 -34 53z"/>
<path d="M3920 2272 c0 -5 11 -19 25 -32 20 -19 27 -21 40 -10 10 8 27 10 52
5 33 -6 35 -5 23 10 -9 11 -27 15 -57 14 -24 -2 -49 3 -55 9 -14 14 -28 16
-28 4z"/>
<path d="M4180 2102 c0 -4 9 -16 21 -26 l21 -18 -21 -22 c-26 -28 -26 -37 -1
-87 28 -53 44 -40 20 15 -18 43 -18 45 1 62 25 22 24 36 -4 62 -24 23 -37 28
-37 14z"/>
<path d="M5263 2423 c9 -2 23 -2 30 0 6 3 -1 5 -18 5 -16 0 -22 -2 -12 -5z"/>
<path d="M5138 2390 c-3 -22 2 -36 19 -52 31 -29 29 -36 -12 -44 -33 -6 -64
-38 -51 -51 3 -3 32 0 65 7 55 11 83 10 125 -6 12 -5 16 0 16 18 0 18 -9 28
-37 41 -48 22 -110 96 -91 108 9 6 7 9 -8 9 -16 0 -23 -7 -26 -30z"/>
<path d="M5632 2478 c-14 -14 -16 -35 -3 -43 12 -7 52 35 45 47 -7 12 -28 10
-42 -4z"/>
<path d="M7283 2235 c27 -25 45 -49 42 -55 -7 -12 12 -50 25 -50 6 0 10 7 10
15 0 8 -4 15 -9 15 -5 0 -7 8 -4 19 5 19 -8 36 -61 76 -53 41 -55 28 -3 -20z"/>
<path d="M7516 2165 c-21 -19 -45 -35 -52 -35 -8 0 -14 -4 -14 -10 0 -5 10
-10 23 -10 14 1 36 17 60 45 46 54 36 59 -17 10z"/>
<path d="M7220 2045 c-7 -8 -23 -15 -36 -15 -13 0 -24 -4 -24 -10 0 -16 57
-12 64 5 3 8 12 15 20 15 8 0 18 5 21 10 10 16 -31 11 -45 -5z"/>
<path d="M5947 2198 c-33 -27 -41 -29 -63 -19 -41 18 -62 13 -79 -19 -19 -36
-19 -50 -1 -50 8 0 17 11 20 25 6 25 29 34 41 15 13 -22 62 -9 103 26 68 57
48 78 -21 22z"/>
<path d="M6432 2099 c1 -12 9 -24 16 -27 9 -3 13 3 10 19 -1 12 -9 24 -16 27
-9 3 -13 -3 -10 -19z"/>
<path d="M3513 673 c9 -2 23 -2 30 0 6 3 -1 5 -18 5 -16 0 -22 -2 -12 -5z"/>
<path d="M4424 2061 c3 -5 32 -24 63 -41 93 -53 123 -81 116 -108 -9 -36 54
-81 72 -52 8 13 -13 40 -28 37 -6 -1 -12 10 -12 24 -1 15 -7 33 -15 41 -28 27
-105 75 -148 91 -49 19 -55 21 -48 8z"/>
<path d="M4486 1677 c-18 -20 -45 -37 -60 -39 -42 -5 -30 -23 16 -23 36 0 44
4 58 30 9 16 26 32 39 35 30 7 32 24 3 28 -16 3 -33 -7 -56 -31z"/>
<path d="M3990 1481 c0 -17 12 -41 21 -41 5 0 9 11 9 25 0 16 -6 25 -15 25 -8
0 -15 -4 -15 -9z"/>
<path d="M5870 1054 c0 -14 22 -44 30 -39 13 8 0 45 -16 45 -8 0 -14 -3 -14
-6z"/>
<path d="M6526 1126 c-18 -19 -46 -36 -60 -38 -43 -5 -30 -23 16 -23 36 0 45
4 55 26 7 15 26 32 43 39 16 7 27 16 24 21 -11 19 -45 8 -78 -25z"/>
<path d="M6820 1125 c0 -10 10 -15 30 -15 27 0 30 -3 30 -32 0 -18 4 -38 8
-44 9 -15 87 -54 107 -54 31 0 14 19 -38 43 -50 23 -54 27 -50 54 3 19 -1 36
-12 46 -21 22 -75 23 -75 2z"/>
<path d="M6510 684 c0 -20 61 -132 75 -138 12 -4 15 -13 10 -35 -7 -35 10 -50
24 -22 16 30 13 56 -9 76 -12 10 -29 38 -39 61 -16 36 -61 79 -61 58z"/>
<path d="M5890 371 c0 -20 13 -41 25 -41 8 0 10 9 7 25 -4 23 -32 37 -32 16z"/>
<path d="M7853 3953 c31 -2 83 -2 115 0 31 2 5 3 -58 3 -63 0 -89 -1 -57 -3z"/>
<path d="M8438 3943 c7 -3 16 -2 19 1 4 3 -2 6 -13 5 -11 0 -14 -3 -6 -6z"/>
<path d="M8523 3943 c26 -2 68 -2 95 0 26 2 4 3 -48 3 -52 0 -74 -1 -47 -3z"/>
<path d="M9338 3933 c34 -2 90 -2 125 0 34 2 6 3 -63 3 -69 0 -97 -1 -62 -3z"/>
<path d="M9978 3923 c34 -2 88 -2 120 0 31 2 3 3 -63 3 -66 0 -92 -1 -57 -3z"/>
<path d="M10828 3913 c34 -2 90 -2 125 0 34 2 6 3 -63 3 -69 0 -97 -1 -62 -3z"/>
<path d="M11390 3813 c0 -22 23 -24 55 -4 19 11 19 12 -3 6 -13 -4 -29 -1 -37
5 -12 10 -15 9 -15 -7z"/>
<path d="M7523 3813 c20 -2 54 -2 75 0 20 2 3 4 -38 4 -41 0 -58 -2 -37 -4z"/>
<path d="M7968 3803 c12 -2 32 -2 45 0 12 2 2 4 -23 4 -25 0 -35 -2 -22 -4z"/>
<path d="M8458 3793 c18 -2 45 -2 60 0 15 2 0 4 -33 4 -33 0 -45 -2 -27 -4z"/>
<path d="M8838 3783 c7 -3 16 -2 19 1 4 3 -2 6 -13 5 -11 0 -14 -3 -6 -6z"/>
<path d="M8903 3783 c15 -2 37 -2 50 0 12 2 0 4 -28 4 -27 0 -38 -2 -22 -4z"/>
<path d="M9398 3773 c18 -2 45 -2 60 0 15 2 0 4 -33 4 -33 0 -45 -2 -27 -4z"/>
<path d="M9798 3763 c23 -2 61 -2 85 0 23 2 4 4 -43 4 -47 0 -66 -2 -42 -4z"/>
<path d="M10343 3753 c20 -2 54 -2 75 0 20 2 3 4 -38 4 -41 0 -58 -2 -37 -4z"/>
<path d="M10740 3751 c0 -5 16 -11 35 -13 39 -5 34 6 -7 16 -16 3 -28 2 -28
-3z"/>
<path d="M10825 3720 c3 -5 8 -10 11 -10 2 0 4 5 4 10 0 6 -5 10 -11 10 -5 0
-7 -4 -4 -10z"/>
<path d="M11152 3617 c-62 -21 -111 -41 -109 -43 4 -4 238 74 246 82 11 10
-33 -2 -137 -39z"/>
<path d="M7508 3643 c17 -2 47 -2 65 0 17 2 3 4 -33 4 -36 0 -50 -2 -32 -4z"/>
<path d="M12630 3632 c-57 -21 -127 -65 -113 -69 6 -2 33 9 60 25 45 28 115
48 193 55 19 2 6 4 -30 5 -38 0 -84 -7 -110 -16z"/>
<path d="M9028 3623 c17 -2 47 -2 65 0 17 2 3 4 -33 4 -36 0 -50 -2 -32 -4z"/>
<path d="M10500 3601 c0 -5 -3 -18 -6 -28 -5 -17 -5 -17 6 0 6 9 19 17 28 17
15 0 15 2 2 10 -19 12 -30 13 -30 1z"/>
<path d="M1603 3578 c-19 -9 -23 -19 -23 -55 0 -23 4 -43 8 -43 4 0 8 17 7 37
0 30 5 40 25 51 54 28 183 -8 294 -83 21 -14 43 -24 49 -22 13 4 -72 59 -148
94 -67 30 -173 41 -212 21z"/>
<path d="M10882 3523 c-57 -19 -102 -37 -99 -39 4 -4 207 62 215 71 10 10 -13
3 -116 -32z"/>
<path d="M10600 3529 c0 -5 5 -7 10 -4 6 3 10 8 10 11 0 2 -4 4 -10 4 -5 0
-10 -5 -10 -11z"/>
<path d="M10544 3508 c-3 -4 -2 -8 3 -8 4 0 18 -3 31 -6 13 -4 22 -2 22 5 0 7
-4 9 -10 6 -5 -3 -10 -2 -10 3 0 11 -29 11 -36 0z"/>
<path d="M2650 3475 c0 -19 5 -35 10 -35 6 0 10 11 10 25 0 29 -7 29 95 10 44
-8 107 -14 140 -13 l60 1 -76 8 c-41 4 -106 15 -143 23 -94 22 -96 22 -96 -19z"/>
<path d="M10855 3484 c-16 -7 -48 -13 -70 -12 -46 2 -215 -51 -215 -67 0 -6
-27 -81 -61 -166 -75 -190 -78 -198 -57 -181 8 7 26 10 39 8 13 -3 27 -5 31
-5 4 -1 5 -9 1 -18 -4 -12 0 -11 11 5 15 20 26 22 101 22 57 0 85 -4 89 -12 5
-10 7 -10 12 0 4 8 36 12 111 12 96 0 105 1 98 18 -4 9 -13 53 -20 97 -10 62
-13 71 -14 39 -1 -41 -2 -42 -43 -47 -24 -4 -64 -9 -90 -13 l-48 -6 0 58 c0
33 3 76 6 96 7 41 17 45 114 51 l45 2 6 -45 c4 -25 5 -7 3 40 -3 47 -8 97 -12
111 -7 24 -9 25 -37 13z m-125 -74 l0 -50 -46 0 -46 0 44 50 c24 27 44 49 46
50 1 0 2 -22 2 -50z m-61 4 c-24 -26 -70 -54 -88 -54 -7 0 -7 8 -2 23 5 13 25
29 52 39 60 23 66 22 38 -8z m-72 -120 c-1 -12 -9 -30 -17 -40 -9 -11 -10 -15
-2 -10 17 10 15 3 -6 -22 -10 -12 -28 -20 -39 -19 -18 1 -20 4 -11 22 6 11 10
20 9 20 -1 0 5 17 13 37 9 21 16 42 16 48 0 6 7 5 20 -2 12 -8 19 -21 17 -34z
m10 40 c-3 -3 -12 -4 -19 -1 -8 3 -5 6 6 6 11 1 17 -2 13 -5z m-77 -180 c0
-19 -5 -24 -25 -24 -28 0 -28 0 -15 34 12 32 40 25 40 -10z m190 -39 l0 -35
-90 0 c-83 0 -90 2 -90 20 0 21 5 23 110 38 36 5 66 10 68 11 1 0 2 -15 2 -34z"/>
<path d="M5805 3420 c-4 -6 9 -10 32 -10 21 0 67 -9 102 -20 35 -11 66 -18 69
-15 8 8 3 10 -78 33 -82 24 -116 27 -125 12z"/>
<path d="M10426 3025 c-9 -26 -7 -32 5 -12 6 10 9 21 6 23 -2 3 -7 -2 -11 -11z"/>
<path d="M10366 2869 c-26 -67 -45 -123 -43 -125 2 -2 25 51 51 117 25 67 45
124 43 126 -2 2 -25 -51 -51 -118z"/>
<path d="M10206 2863 c-6 -14 -5 -15 5 -6 7 7 10 15 7 18 -3 3 -9 -2 -12 -12z"/>
<path d="M10306 2715 c-9 -26 -7 -32 5 -12 6 10 9 21 6 23 -2 3 -7 -2 -11 -11z"/>
<path d="M10253 2578 c-22 -57 -43 -114 -47 -128 -6 -24 -6 -24 5 -3 26 49
158 67 381 52 171 -11 237 -7 111 7 -118 13 -384 11 -426 -4 -21 -8 -40 -12
-42 -10 -3 2 11 44 30 93 19 49 33 90 31 92 -2 2 -21 -42 -43 -99z"/>
<path d="M1943 2615 c-13 -29 1 -34 17 -6 10 19 11 19 72 -6 86 -34 156 -53
198 -52 28 0 22 3 -28 14 -35 8 -99 28 -142 44 -96 37 -102 38 -117 6z"/>
<path d="M3396 2483 c-6 -14 -5 -15 5 -6 7 7 10 15 7 18 -3 3 -9 -2 -12 -12z"/>
<path d="M10176 2380 c-22 -56 -19 -65 5 -11 11 24 18 46 15 48 -2 2 -11 -14
-20 -37z"/>
<path d="M0 2321 c0 -5 15 -15 33 -22 17 -7 35 -14 40 -17 4 -2 7 0 7 5 0 5
-16 17 -35 26 -41 20 -45 20 -45 8z"/>
<path d="M10106 2199 c-26 -67 -45 -123 -43 -126 2 -2 25 51 51 118 26 67 45
123 43 126 -2 2 -25 -51 -51 -118z"/>
<path d="M8073 2113 c9 -2 23 -2 30 0 6 3 -1 5 -18 5 -16 0 -22 -2 -12 -5z"/>
<path d="M10046 2045 c-9 -26 -7 -32 5 -12 6 10 9 21 6 23 -2 3 -7 -2 -11 -11z"/>
<path d="M7890 2036 c0 -2 8 -10 18 -17 15 -13 16 -12 3 4 -13 16 -21 21 -21
13z"/>
<path d="M10001 1929 c-17 -45 -30 -83 -28 -85 2 -2 18 33 36 77 17 45 30 83
28 85 -2 2 -18 -33 -36 -77z"/>
<path d="M9941 1774 c-12 -31 -20 -59 -18 -61 2 -2 14 22 26 53 12 31 20 59
18 61 -2 2 -14 -22 -26 -53z"/>
<path d="M9906 1685 c-9 -26 -7 -32 5 -12 6 10 9 21 6 23 -2 3 -7 -2 -11 -11z"/>
<path d="M9862 1568 c-17 -45 -30 -84 -28 -86 2 -2 18 34 35 79 17 45 30 84
28 86 -2 2 -18 -34 -35 -79z"/>
<path d="M9806 1425 c-9 -26 -7 -32 5 -12 6 10 9 21 6 23 -2 3 -7 -2 -11 -11z"/>
<path d="M2335 1364 c113 -32 155 -41 143 -29 -10 10 -213 65 -238 64 -14 0
29 -16 95 -35z"/>
<path d="M9746 1269 c-26 -67 -45 -123 -43 -125 2 -2 25 51 51 117 25 67 45
124 43 126 -2 2 -25 -51 -51 -118z"/>
<path d="M9540 1229 c0 -5 5 -7 10 -4 6 3 10 8 10 11 0 2 -4 4 -10 4 -5 0 -10
-5 -10 -11z"/>
<path d="M9546 755 c-9 -26 -7 -32 5 -12 6 10 9 21 6 23 -2 3 -7 -2 -11 -11z"/>
<path d="M9510 660 c-22 -59 -39 -77 -41 -42 0 14 -2 13 -9 -4 -5 -12 -22 -24
-42 -29 l-33 -8 40 -6 40 -6 21 -260 c12 -143 24 -271 27 -285 10 -57 5 43
-16 294 l-22 258 24 9 c18 7 21 13 13 21 -8 8 -5 24 9 61 11 27 18 51 16 54
-3 2 -14 -23 -27 -57z"/>
<path d="M9370 669 c0 -5 5 -7 10 -4 6 3 10 8 10 11 0 2 -4 4 -10 4 -5 0 -10
-5 -10 -11z"/>
<path d="M9397 665 c-6 -15 10 -32 20 -21 4 3 1 6 -5 6 -6 0 -9 7 -6 15 4 8 4
15 1 15 -3 0 -7 -7 -10 -15z"/>
<path d="M9431 671 c-10 -6 -11 -14 -3 -26 9 -17 10 -16 17 4 8 27 4 33 -14
22z"/>
<path d="M3838 593 c7 -3 16 -2 19 1 4 3 -2 6 -13 5 -11 0 -14 -3 -6 -6z"/>
<path d="M4083 583 c15 -2 37 -2 50 0 12 2 0 4 -28 4 -27 0 -38 -2 -22 -4z"/>
<path d="M4448 573 c12 -2 32 -2 45 0 12 2 2 4 -23 4 -25 0 -35 -2 -22 -4z"/>
<path d="M9348 563 c6 -2 18 -2 25 0 6 3 1 5 -13 5 -14 0 -19 -2 -12 -5z"/>
<path d="M9250 550 c-23 -7 -23 -8 -3 -9 20 -1 22 -8 28 -98 9 -137 16 -141
10 -6 -5 110 -5 112 17 116 21 4 21 4 -2 5 -14 0 -36 -4 -50 -8z"/>
<path d="M9168 533 c6 -2 18 -2 25 0 6 3 1 5 -13 5 -14 0 -19 -2 -12 -5z"/>
<path d="M9118 523 c6 -2 18 -2 25 0 6 3 1 5 -13 5 -14 0 -19 -2 -12 -5z"/>
<path d="M9356 522 c-3 -5 5 -8 17 -8 21 1 22 -4 28 -94 l6 -95 -1 100 c-1 95
-2 100 -23 103 -11 2 -24 -1 -27 -6z"/>
<path d="M9058 513 c6 -2 18 -2 25 0 6 3 1 5 -13 5 -14 0 -19 -2 -12 -5z"/>
<path d="M9008 503 c7 -3 16 -2 19 1 4 3 -2 6 -13 5 -11 0 -14 -3 -6 -6z"/>
<path d="M8948 493 c6 -2 18 -2 25 0 6 3 1 5 -13 5 -14 0 -19 -2 -12 -5z"/>
<path d="M8888 483 c6 -2 18 -2 25 0 6 3 1 5 -13 5 -14 0 -19 -2 -12 -5z"/>
<path d="M8833 473 c9 -2 23 -2 30 0 6 3 -1 5 -18 5 -16 0 -22 -2 -12 -5z"/>
<path d="M8778 463 c6 -2 18 -2 25 0 6 3 1 5 -13 5 -14 0 -19 -2 -12 -5z"/>
<path d="M8723 453 c9 -2 23 -2 30 0 6 3 -1 5 -18 5 -16 0 -22 -2 -12 -5z"/>
<path d="M8668 443 c6 -2 18 -2 25 0 6 3 1 5 -13 5 -14 0 -19 -2 -12 -5z"/>
<path d="M2136 425 c-9 -26 -7 -32 5 -12 6 10 9 21 6 23 -2 3 -7 -2 -11 -11z"/>
<path d="M8608 433 c6 -2 18 -2 25 0 6 3 1 5 -13 5 -14 0 -19 -2 -12 -5z"/>
<path d="M8548 423 c6 -2 18 -2 25 0 6 3 1 5 -13 5 -14 0 -19 -2 -12 -5z"/>
<path d="M9368 390 c2 -22 6 -40 8 -40 2 0 4 18 4 40 0 22 -3 40 -8 40 -4 0
-6 -18 -4 -40z"/>
<path d="M8455 410 c-27 -7 -27 -8 -5 -8 14 0 39 4 55 8 27 7 27 8 5 8 -14 0
-38 -4 -55 -8z"/>
<path d="M2573 403 c9 -2 23 -2 30 0 6 3 -1 5 -18 5 -16 0 -22 -2 -12 -5z"/>
<path d="M8383 393 c9 -2 23 -2 30 0 6 3 -1 5 -18 5 -16 0 -22 -2 -12 -5z"/>
<path d="M8328 383 c6 -2 18 -2 25 0 6 3 1 5 -13 5 -14 0 -19 -2 -12 -5z"/>
<path d="M8268 373 c6 -2 18 -2 25 0 6 3 1 5 -13 5 -14 0 -19 -2 -12 -5z"/>
<path d="M3893 363 c9 -2 23 -2 30 0 6 3 -1 5 -18 5 -16 0 -22 -2 -12 -5z"/>
<path d="M8208 363 c6 -2 18 -2 25 0 6 3 1 5 -13 5 -14 0 -19 -2 -12 -5z"/>
<path d="M8153 353 c9 -2 23 -2 30 0 6 3 -1 5 -18 5 -16 0 -22 -2 -12 -5z"/>
<path d="M8098 343 c6 -2 18 -2 25 0 6 3 1 5 -13 5 -14 0 -19 -2 -12 -5z"/>
<path d="M8043 333 c9 -2 23 -2 30 0 6 3 -1 5 -18 5 -16 0 -22 -2 -12 -5z"/>
<path d="M9440 300 c-6 -23 -9 -47 -7 -53 2 -6 9 10 16 37 6 27 10 51 7 53 -3
3 -10 -14 -16 -37z"/>
<path d="M7988 323 c6 -2 18 -2 25 0 6 3 1 5 -13 5 -14 0 -19 -2 -12 -5z"/>
<path d="M2086 305 c-9 -26 -7 -32 5 -12 6 10 9 21 6 23 -2 3 -7 -2 -11 -11z"/>
<path d="M7933 313 c9 -2 23 -2 30 0 6 3 -1 5 -18 5 -16 0 -22 -2 -12 -5z"/>
<path d="M9293 260 c0 -36 3 -96 7 -135 l7 -70 0 65 c0 36 -3 97 -7 135 l-7
70 0 -65z"/>
<path d="M7878 303 c7 -3 16 -2 19 1 4 3 -2 6 -13 5 -11 0 -14 -3 -6 -6z"/>
<path d="M7823 293 c9 -2 23 -2 30 0 6 3 -1 5 -18 5 -16 0 -22 -2 -12 -5z"/>
<path d="M7768 283 c7 -3 16 -2 19 1 4 3 -2 6 -13 5 -11 0 -14 -3 -6 -6z"/>
<path d="M7703 273 c9 -2 23 -2 30 0 6 3 -1 5 -18 5 -16 0 -22 -2 -12 -5z"/>
<path d="M2051 219 c-12 -29 -20 -54 -18 -56 2 -2 14 20 26 48 12 29 20 54 18
56 -2 2 -14 -20 -26 -48z"/>
<path d="M7648 263 c6 -2 18 -2 25 0 6 3 1 5 -13 5 -14 0 -19 -2 -12 -5z"/>
<path d="M7593 253 c9 -2 23 -2 30 0 6 3 -1 5 -18 5 -16 0 -22 -2 -12 -5z"/>
<path d="M6510 240 c0 -6 7 -10 15 -10 8 0 15 2 15 4 0 2 -7 6 -15 10 -8 3
-15 1 -15 -4z"/>
<path d="M7538 243 c6 -2 18 -2 25 0 6 3 1 5 -13 5 -14 0 -19 -2 -12 -5z"/>
<path d="M7483 233 c9 -2 23 -2 30 0 6 3 -1 5 -18 5 -16 0 -22 -2 -12 -5z"/>
<path d="M7428 223 c6 -2 18 -2 25 0 6 3 1 5 -13 5 -14 0 -19 -2 -12 -5z"/>
<path d="M7368 213 c6 -2 18 -2 25 0 6 3 1 5 -13 5 -14 0 -19 -2 -12 -5z"/>
<path d="M7308 203 c6 -2 18 -2 25 0 6 3 1 5 -13 5 -14 0 -19 -2 -12 -5z"/>
<path d="M6605 190 c-3 -5 -1 -10 4 -10 6 0 11 5 11 10 0 6 -2 10 -4 10 -3 0
-8 -4 -11 -10z"/>
<path d="M7253 193 c9 -2 23 -2 30 0 6 3 -1 5 -18 5 -16 0 -22 -2 -12 -5z"/>
<path d="M7198 183 c6 -2 18 -2 25 0 6 3 1 5 -13 5 -14 0 -19 -2 -12 -5z"/>
<path d="M7143 173 c9 -2 23 -2 30 0 6 3 -1 5 -18 5 -16 0 -22 -2 -12 -5z"/>
<path d="M6578 158 c6 -6 18 -8 28 -6 14 3 12 5 -9 10 -19 3 -25 2 -19 -4z"/>
<path d="M7088 163 c6 -2 18 -2 25 0 6 3 1 5 -13 5 -14 0 -19 -2 -12 -5z"/>
<path d="M7028 153 c6 -2 18 -2 25 0 6 3 1 5 -13 5 -14 0 -19 -2 -12 -5z"/>
<path d="M2016 135 c-9 -26 -7 -32 5 -12 6 10 9 21 6 23 -2 3 -7 -2 -11 -11z"/>
<path d="M6968 143 c6 -2 18 -2 25 0 6 3 1 5 -13 5 -14 0 -19 -2 -12 -5z"/>
<path d="M6913 133 c9 -2 23 -2 30 0 6 3 -1 5 -18 5 -16 0 -22 -2 -12 -5z"/>
<path d="M6858 123 c6 -2 18 -2 25 0 6 3 1 5 -13 5 -14 0 -19 -2 -12 -5z"/>
<path d="M6803 113 c9 -2 23 -2 30 0 6 3 -1 5 -18 5 -16 0 -22 -2 -12 -5z"/>
<path d="M6748 103 c6 -2 18 -2 25 0 6 3 1 5 -13 5 -14 0 -19 -2 -12 -5z"/>
<path d="M6688 93 c6 -2 18 -2 25 0 6 3 1 5 -13 5 -14 0 -19 -2 -12 -5z"/>
<path d="M6580 75 c0 -9 6 -12 15 -9 8 4 15 7 15 9 0 2 -7 5 -15 9 -9 3 -15 0
-15 -9z"/>
<path d="M6628 83 c6 -2 18 -2 25 0 6 3 1 5 -13 5 -14 0 -19 -2 -12 -5z"/>
<path d="M1986 65 c-9 -26 -7 -32 5 -12 6 10 9 21 6 23 -2 3 -7 -2 -11 -11z"/>
<path d="M6571 34 c0 -11 3 -14 6 -6 3 7 2 16 -1 19 -3 4 -6 -2 -5 -13z"/>
<path d="M9312 25 c0 -17 2 -22 5 -12 2 9 2 23 0 30 -3 6 -5 -1 -5 -18z"/>
<path d="M1966 13 c-6 -14 -5 -15 5 -6 7 7 10 15 7 18 -3 3 -9 -2 -12 -12z"/>
<path d="M3988 3 c6 -2 18 -2 25 0 6 3 1 5 -13 5 -14 0 -19 -2 -12 -5z"/>
</g>
</svg>
